/* XPM */
static char *_633099779017[] = {
/* columns rows colors chars-per-pixel */
"80 80 233 2 ",
"   c #0D2C46",
".  c #0F2E48",
"X  c #112D47",
"o  c #122E49",
"O  c #15324C",
"+  c #1A344D",
"@  c #1A3146",
"#  c #1B3651",
"$  c #1E3A55",
"%  c #22364D",
"&  c #293A4D",
"*  c #343D4D",
"=  c #213750",
"-  c #233B55",
";  c #2B3C54",
":  c #243D58",
">  c #2A3F59",
",  c #333E55",
"<  c #333F5A",
"1  c #3A414D",
"2  c #2D4156",
"3  c #2D415B",
"4  c #324255",
"5  c #3A4356",
"6  c #34435C",
"7  c #3A445D",
"8  c #3E485D",
"9  c #3D4660",
"0  c #3F4861",
"q  c #4D474D",
"w  c #454A57",
"e  c #42465C",
"r  c #44495D",
"t  c #4A4B5D",
"y  c #4A4A54",
"u  c #524E5A",
"i  c #5D5457",
"p  c #54505C",
"a  c #5B535C",
"s  c #5D585C",
"d  c #51494D",
"f  c #63565C",
"g  c #6B5A5D",
"h  c #63595A",
"j  c #745C5A",
"k  c #7A5F5B",
"l  c #7A5F57",
"z  c #7D615B",
"x  c #7A635A",
"c  c #414761",
"v  c #444962",
"b  c #4C4B64",
"n  c #4E4B68",
"m  c #524D66",
"M  c #544E68",
"N  c #584F64",
"B  c #555164",
"V  c #5A5265",
"C  c #565069",
"Z  c #5B526A",
"A  c #4F5064",
"S  c #645564",
"D  c #6C5965",
"F  c #63556C",
"G  c #68576C",
"H  c #66586C",
"J  c #6B596D",
"K  c #655963",
"L  c #725D64",
"P  c #735D6D",
"I  c #795F6C",
"U  c #7C5F63",
"Y  c #6E5A70",
"T  c #665670",
"R  c #735D72",
"E  c #785F73",
"W  c #7D6264",
"Q  c #7D616D",
"!  c #766369",
"~  c #766072",
"^  c #7D6174",
"/  c #7A6974",
"(  c #83635B",
")  c #8A665B",
"_  c #8D6B5C",
"`  c #85675A",
"'  c #946A5C",
"]  c #9B6D5C",
"[  c #956857",
"{  c #99725A",
"}  c #A26E5D",
"|  c #A4725C",
" . c #AB735C",
".. c #A5795A",
"X. c #A87E5D",
"o. c #B7785D",
"O. c #826464",
"+. c #836A66",
"@. c #8C6B64",
"#. c #83646C",
"$. c #8B666C",
"%. c #8E6A6C",
"&. c #896565",
"*. c #946B63",
"=. c #9B6D63",
"-. c #936B6C",
";. c #9B6D6B",
":. c #906765",
">. c #9D736C",
",. c #987366",
"<. c #826475",
"1. c #8A6773",
"2. c #8D6875",
"3. c #866678",
"4. c #896779",
"5. c #8D697A",
"6. c #946B75",
"7. c #9B6E73",
"8. c #926B79",
"9. c #9E7174",
"0. c #927172",
"q. c #A16E62",
"w. c #A06F6B",
"e. c #A47164",
"r. c #AC7464",
"t. c #AC7B63",
"y. c #A4726E",
"u. c #AB746B",
"i. c #A67A68",
"p. c #B37664",
"a. c #B47A64",
"s. c #BB7A64",
"d. c #B27669",
"f. c #B27B6B",
"g. c #BA7D69",
"h. c #A27271",
"j. c #AC7D73",
"k. c #A57773",
"l. c #B37F71",
"z. c #C57D5E",
"x. c #CA7F5C",
"c. c #CE7F57",
"v. c #C37E62",
"b. c #BD875F",
"n. c #A8836D",
"m. c #BB8364",
"M. c #BC816A",
"N. c #B98667",
"B. c #B78775",
"V. c #AD8B7B",
"C. c #9E897C",
"Z. c #CE815B",
"A. c #C8875E",
"S. c #D2835A",
"D. c #D58A5E",
"F. c #DB8B5B",
"G. c #D98759",
"H. c #DD925D",
"J. c #E3935C",
"K. c #E9965C",
"L. c #ED9B5D",
"P. c #E1985F",
"I. c #F19E5D",
"U. c #E08F5B",
"Y. c #F5A25D",
"T. c #F9A55D",
"R. c #FFAA5E",
"E. c #C48262",
"W. c #CA8462",
"Q. c #C38963",
"!. c #CC8964",
"~. c #C3846A",
"^. c #CA8B6B",
"/. c #C68A6C",
"(. c #D38B63",
"). c #D58B62",
"_. c #DB9362",
"`. c #DB956A",
"'. c #D69469",
"]. c #CA9578",
"[. c #D89B77",
"{. c #C68C71",
"}. c #E29663",
"|. c #E49964",
" X c #EA9D64",
".X c #E39C6C",
"XX c #E59B69",
"oX c #EDA165",
"OX c #ECA46C",
"+X c #E7A46D",
"@X c #F5A563",
"#X c #FEAD63",
"$X c #F5AB6C",
"%X c #FCAE69",
"&X c #F5A767",
"*X c #FFB26B",
"=X c #FFB067",
"-X c #EEAA74",
";X c #EEAD79",
":X c #E6A678",
">X c #F2AC73",
",X c #F6B175",
"<X c #FFB975",
"1X c #FFBB7B",
"2X c #FAB577",
"3X c #DFA179",
"4X c #B79487",
"5X c #C69B86",
"6X c #C09C90",
"7X c #DCB596",
"8X c #D5A78C",
"9X c #E5B28A",
"0X c #F7BA84",
"qX c #E3B899",
"wX c #ECB88E",
"eX c #E9BEA0",
"rX c #FFC58C",
"tX c #FEC287",
"yX c #FFC791",
"uX c #FFCA95",
"iX c #FFCD9B",
"pX c #F6C395",
"aX c #FED09E",
"sX c #FDCEA0",
"dX c #FFD3A4",
"fX c #FFD5A9",
"gX c #FFD9AD",
"hX c #F7D1AC",
"jX c #FFDCB4",
"kX c #FFDEB9",
"lX c #E9C1A4",
"zX c #FFE1BE",
"xX c #FFE3C4",
/* pixels */
"wXdXuXaXaX4Xb 9.qXhXkXgXdXdXiXgXiXiXgXjXkXiXfXuXpXiXiXfXfXsXuX0Xm.+.B.rXrXdXfXfXdXfXdXsXuXyXyXuXfXdXuXuXiXfXfXfXiXuX:XW.e.9XtXyXfXfXdXdXfXdXsXuXrXyXiXfXiXuXdXpX",
"iXkXxXzXfX8XP 4XjXfXdXfXdXdXfXjXjXjXkXxXzXgXdXjXkXkXgXkXkXkXjXdXoXr.9XfXgXkXfXaXdXdXkXkXkXjXfXiXyXuXkXxXxXkXjXkXjXjXyXW.M.iXfXjXjXdXsXdXfXkXkXjXgXdXuXyXiXxXkXuX",
"uXfXkXfXrX9X5.5XgXfXfXrXtXfXfXyX1XdXyX0XfXiX1XiXfXfXfXfXuXiXfXfX:Xv.pXuXrXrXrXyXdXdXuXyXrXrXuXfXdXdXfXuXuXdXdXyXsXfXiX^.'.aXyXrXrXrXuXfXdXyXyXrXyXdXfXsXfXkXfXiX",
"aXgXuX#X*X9X^ 4XdX*X=XR.R.=X*X#XR.%X#XR.=X=XR.=X=X%X=X%X#XR.%X1X9Xc.0X%XR.R.R.R.%X%XR.R.R.R.#X%X%X=X%XR.R.%X%X#X%X%XtX_.^.0XY.Y.R.R.#X%X#X#XT.R.R.#X*X%X=XuXgXaX",
"iXaX1XR.R.9X^ 4XrXR.R.R.R.#X,XOXR.R.R.R.#X,X@XR.R.R.R.R.R.R.#X*X:Xx.2X%XR.R.R.R.R.R.#X#XR.R.R.R.R.R.R.R.#XR.R.R.R.R.1X'./.0X,X#XR.R.R.R.R.R.R.T.R.R.R.R.R.1XdXuX",
"uXfX0XR.*X9X3.4X2XK.I.R.R.Y.I.L.R.#XR.R.T.Y.T.R.T.R.R.%XR.T.>X0X:XZ.wX>XL.#X%X#X$X,X@X*X*X%X%X,X,X*X*X%XT.R.R.R.I.$XyX^.V.wX#XI.R.#XR.Y.Y.R.%X$XR.T.I.T.R.0XfXuX",
"8XqX[.).^.4XR k.E.v.D.).D.v.A.Z.G.H.F.D.A.s.Z.Z.Z.W.E.`._.D.x.].k.8.l.s.v.(.^.).v.v.W.'.'.'.D.a.s.(.[.`.).F.F.F.S.W.5X2.8.v.s.c.S.D.Z.s.z.).(.~.W.Z.a.W.F.[.eXlX",
"<.6.7.7.5.5.Y Y P R I P D P P G S S S S Z V F K K S J I #.I P 4.^ Y P G G L L S F D I G D P Q R J 2.6.%.1.$.I <.P <.4.R Y Y G D D D G F P I 1.4.6.6.5.8.6.7.7.5.",
"R ~ 5.5.k.y.>.+.O.O.! b ; S O.! #.O.! F O.! Z C V Z W ( -.k.>.h.k.0.,.>.-.L Q F ! %.y.-.-.#.! +.P D P H J +.O.>.>.>.h.k.-.,.-.%.D ~ F +.-.9.-.,.<.k.V.5.5.2.~ J ",
"8XqXqX7X8X>X-XoXK.@X_.Q m E.I.U.F.J.J.E.K.K.E.a.A.D.oXT.Y.Y.K.K.K.K.K.K.Y./.2.$._.&XP.F.J._.).K._._._.A.D.I.T.T.L.K.K.L.%X&X$X$Xj.1.i.K.I.F.J.J.(.[.:X3X7XqX7X8X",
"wX1XwX`.).D.D.S.S.S.U.W K D.S.S.S.c.v.v.x.S.S.S.D.S.G.S.D.S.c.S.c.S.Z.Z.S.H.2.B.+X.X_.S.v.v.x.c.Z.S.S.S.S.S.S.F.J.v.c.S.D.D.D.-X/.4.(.F.S.c.Z.S.Z.S.S.S._.2X<XOX",
";X%X2X).S.Z.Z.Z.S.c.J.O.D F.S.S.S.F.[.W.z.S.S.S.S.S.Z.S.S.Z.S.c.S.Z.S.Z.S.H.<.B..Xc.c.S.S.(.).S.S.S.S.Z.S.Z.S.c.G.`.v.S.S.Z.Z.+X/.<.!.S.x.Z.Z.Z.S.Z.Z.Z.Z.&X=X>X",
"+X%X,XD.S.Z.S.S.Z.Z.H.+.D J.S.Z.c.S.S.S.S.x.Z.x.x.S.S.c.c.S.x.v.x.c.S.c.S._.6.M._.c.S.c.S.S.S.c.Z.S.c.S.Z.S.c.S.c.).S.S.Z.Z.Z.XX^.1.!.S.).c.S.S.Z.S.c.S.(.,X#XOX",
";X#X1X(.S.S.S.S.z.Z.F.$.! H.S.S.S.S.S.c.S.a.d.g.z.S.S.S.S.S.)._.S.S.S.S.S.D.! ,.U.c.c.S.S.c.S.S.S.Z.c.S.S.Z.S.c.S.S.S.S.D.Z.Z.XXm.J A.S.c.S.S.S.S.S.E.c.D.$X#X-X",
"|.[.].].}.D.Z.Z.u.u.^.+.D !.r.v.x.v.x.S.x.v.v.v.v.x.o.x.s.v.W.S.Z.Z.v.h.d.Q.F -.~.d.x.z.v.x.s.d.y.d.s.p.z.x.v.v.v.x.v.S.S.a.y.~.i.Z M.a.s.x.z.z.v.g.d.y.s.^.[..X",
"L L S -.2.1.1.$.R ~ H b m F J Q P L ^ :.#.#.+.D B p b P P P <.#.#.#.Q R R B M B M J 1.D R Q E R R ~ S m B S E J E #.#.#.#.~ ~ T A M B Z I ^ G I <.~ ^ <.^ F H D ",
"9 F m b v c c 3 - > : - : $ $ : - 3 6 - : : : : - > $ - - : : - > 7 > > > 6 b > $ - > : < 8 6 , : : : $ # $ - $ : : : 2 7 : 2 3 9 9 $ $ : 3 3 7 v 0 n C n C Z c ",
"6.4X4XC.n.,.*.! j f j k u f l j K m 6 # 8 V t w e j f t g k k k g D V j S ) j t j l g S b F m V p w w p j a p k z k j D S f g j ) z k ` _ { z t C @.t.i.t.t.B.V.",
":X1XrX2X,XK.F.D.v.y.s.s.u.d.h.d.s.r.r 3 ( s.r.w.r.s.s.p.d.u.h.y.7.w.p.s.u.v.s.p.a.v.s.s.*.Z N e.a.u.y.r.g.p.p.u.u.h.h.7.y.s.u.d.Z.(._.`.+X|.oXn.Z `.R.Y.&X<X<XOX",
";XR.*X_.x.S.c.v.9.5.8.5.5.8.5.5.5.y.f 7 #.8.5.5.5.5.5.5.5.4.5.5.5.5.5.5.5.6.5.5.5.5.5.6.w.e c ;.8.5.5.5.5.5.8.5.5.5.5.5.5.5.5.5.8.8.5.1.4.2.B.N.V (.H.S.D.$XR.>X",
" X#X@XG.r.x.c.v.8.5.5.5.4.R 5.5.5.k.i 6 w.8.5.5.5.5.5.5.5.5.5.5.4.3.4.5.5.5.5.5.4.5.5.8. .5 N y.5.5.5.5.5.5.5.5.5.5.5.2.5.5.5.5.E P P <.5.5.m.Q.H /.F.Z.S.oXR.OX",
"oX#X%Xv.p.c.S.S.h.4.5.5.5.<.7.5.4.6.p 4 =.8.5.5.5.5.5.5.5.6.E E I $.2.5.5.5.5.6.$.4.5.5.r.< i 7.5.5.5.5.5.5.5.2.4.2.<.<.<.E I L Z G E 8.5.5.W.b.F (.F.S.D.$XR.oX",
">X#X$X).c.c.c.x.h.5.5.5.5.5.8.5.5.u.i ; r.8.5.5.5.5.5.5.5.7.;.;.6.6.5.5.5.5.5.2.2.5.5.8.=.* q y.5.5.5.5.8.5.8.;.$.<.2.6.;.2.6.6.5.8.5.4.5.8.D.b.Z m.S.Z.S.$X%X;X",
">X%X&XS.v.s.s.g.6.4.^ 1.^ 3.4.4.4.u.h ; =.<.3.<.<.<.3.<.<.<.5.4.R <.5.4.3.3.<.<.<.<.E E } % q ;.<.^ E <.<.4.3.<.1.2.<.R 3.4.4.3.3.4.E R E <.M.m.J (.F.F.`.,X*X>X",
"{.OX_.E.u.6.<.Q F b c C b m Z Z Z V u ; e m M M b m M m c n N n c b F Z M M m v m m n m a @ % b b n b n m N m c M Z b c m F Z m M M M n n Z 6.O.! (.P.P.+XOXOXB.",
"r B B K D F Z 9 $ $ $ : : : : : > 9 b : o ; - + # # o X X X X X o X o o o o X X o O + O       X X X X X X X X X X X   o X X o X   + # - $ 9 b 0 8 K K B K V V 8 ",
"/ +.@.@.*.I U c 7 w i i i w 4 5 j S m t < - ; o + , 5 < , 5 5 ; + o + + , , , , % + , < , < e & % % @ @ , < , < < < , ; + @ * d y q q i i h x x @.@.@.@.@.@.+./ ",
"OX<X<X#X X$.L L r.y.u.y.s.p.-.r.p.$.Y R <.Y E Y P E 5.E Y 3.3.E ; O N R <.R <.<.G Z E E R R <.E Y E Y R <.5.5.3.3.1.5.c 4 ] p.h.7.6.7.h.v.S.L.I.L.K.Y.Y.#X<X<XOX",
"-XR.*X`.Z.-.F &.6.5.5.5.5.8.5.~ V M m M Z M Z Z Z Z Z M M M M F e @ Z M b M M N m m Z M M m Z M Z M Z Z Z Z G F M Z <.8 w o.6.5.5.5.4.6.7.d.S.S.Z.c.S.S..X%X#X:X",
"oXR.=X`.s.-.Z :.9.5.5.8.6.4.5.Y M M M M M M M Z N m M M M b n F b X F M b M n c 7 M b M M m m b M M n n M M M M M Z $.5 * p.5.5.8.h.y.8.4.7.Z.S.Z.E.Z.Z.`.#X@X X",
";XR.=X+Xx.-.M #.y.5.5.6.1.4.5.<.Z M M M M M M Z Z M M M M n M F e X Z F M M b b n M c m M M M Z M M m F M M M M M M #.7 * p.5.2.5.6.k.5.5.8.u.Z.S.S.S.Z.XX$X$X-X",
";XR.#X|.Z.-.M :.h.3.5.5.4.5.8.4.G m b M M M M M M M M M m m M G t X G Z n M M N M M M M n n M M M M N M M M N M M M I 6 q p.5.8.8.5.5.5.5.8.h.Z.S.c.S.c.|.*X%X-X",
"oX@X$XXX!.e.Z O.#.H R 3.<.R R R R Z b b v 9 c b c v b m v 9 7 H 7 X m 9 6 b b c 7 9 0 b b b b v 8 v c v c c c 9 9 9 m > 4 O.R R R <.4.3.8.7.a.D.G.J.K.K.@X$X@X@X",
"u.j.B.j.-.P Z v 9 9 b c v 6 9 c v b - # + O # # $ # - - - # # = @ X o + # # # # + + # $ - $ # O + # $ # # + # # # # - $ - 8 c c v b M Z S L O.-.y.i.u.j.j.B.j.k.",
"C ^ ~ ^ F ~ J c $ $ 9 6 # # $ - - > +           .       . .   o # o o o o O +       O . o o         o         o o X + + + - - : > - $ $ $ : ; 9 n M M T ^ ~ ^ C ",
"B.].N.N.t.m./.] ( ( g 7 - b ( ( ( U t ; m e = + ; % e u M Z e m M M N Z Z ; = o 7 B Z M M 5 6 N 7 + + ; , M Z Z Z Z V z ( ( ( ) s : , l ( ` ..t.m.X.N.m.N.N.].B.",
"<X*X<X XS.F.F.E.s.a.p.S 7 -.a.h.7.1.1.Y R T F Z G Y E E E T c 7 M F F Y E F = ; Y R F F T Z F R G Z F F Y <.<.E ~ E <.y.&.;.w.S.=.6 ) ).v.d.F.J.F.S.K.I.@X<X*X<X",
"rX#X#XJ.c.S.S.Z.c.x.h.M 5 7.5.4.5.6.5.Y M M M Z M M Z Z M M Z e < m M M Z F % < Z M M M M m b 7 b M M M M M M M m b b M m B m *.' > [ v.v.z.S.S.S.A.x.S.U.#X@XrX",
"yXR.%X.XZ.S.x.S.x.S.a.e 5 e.6.2.5.8.3.Z M M Z M m M m v M M M M c v M M Z J + e G M M b b m b 9 < m M M M M M m M b b M M Z M *.' 6 q.d.v.z.x.c.S.x.c.c..X,X,XyX",
"1XR.#X}.Z.S.x.S.Z.Z.z.0 , r.5.5.5.5.R M M m M M M M M m M M M M Z c M M M G % < T M M M b n M M m M b m M M Z Z M M c b M M M &.' 6 } u.6.6.k.v.c.S.S.c.}.#XR.1X",
"tXR.*X`.c.Z.S.S.S.x.d.8 & r.5.5.8.5.^ D M n M M M M M M M M M M M M M n M H # e G b M Z Z M M b m M n m M M Y T M Z F M Z M T k.` : [ k.f.k.;.h.p.S.Z.z.'.*X#XtX",
"0X&XoX_.S.W.s.q.U D G 5 ; j H P E E J m 9 9 v 9 > 7 v c 6 6 9 v c b 9 > > 8 o ; 9 < c c c c c 6 v v 6 2 7 9 9 9 9 > 6 6 T H P ^ V 2 V #.E R 7.9.y.x.F.K.oX+X$X1X",
"j.n.k.t.e.*.L N c v 6 c < # > 7 6 6 # # + + # O .   + + + o O + O + + + O O +     O + . o # # + + + O   o O + + + O + - 6 9 7 9 : : > 7 b b g g O.' ,.n.t.t.n.k.",
"Z ! F m C M v b 7 c 6 5 < - - - : 9 $ .               o O + O o . O . o o + +   o o X   + + o o     .   O o o o .     $ : $ : - : 2 : ; : 2 2 9 b c b C C Z / Z ",
"].:X.X_.H.A.m.t.q.&.} } k ' } } *.j - + ; N v e r H F e F R H J C m m H B P H b F G G Z < + o b b c e b J P b e r b J Q ' g } | }  . . ...o.a.K Z N._._.H.3X:X].",
"$X*X*XK.F.D.Z.g.u.7.u.u.y.h.6.h.=.' ; o b R G F T H Y R F Z C Z Z Z H T H Y Y T F Z T R F + + H Y T F J G Y E R R R 4.6.e.h.u.;.w.y.u.u.u.f.`.N.Z `.R.K.K.$X=XOX",
";X#X$XS.c.S.S.v.h.5.5.5.5.5.2.5.<.#., o Z M M M M M M M m M M M M M M M M m M m M M v b F # ; F M m M M M M M M M M R 9.#.^ 5.5.5.1.#.~ 4.4.~.N.V '.F.Z.S.*X#X;X",
"-X#X.XZ.c.S.Z.Z.w.4.5.5.5.5.5.5.5.7.y @ H M M M M M M M M c 9 M M M M M m M M n 7 M b n F @ , G M b b M M M M M M N E 5.j.e.3.5.5.$.6.<.5.5.m.Q.H '.F.Z.S.`.#X-X",
"L.R.+XS.v.z.c.x.u.$.#.5.5.5.5.5.5.7.y o G Z M M M M M M M c 0 c M M M M c m M v 9 M M C Z % , G M M M M M M M m v M T 3.5.k.k.5.5.6.5.5.5.8.W.b.H (.F.Z.D.[.%XL.",
"oXR.&XD.Z.c.S.c.v.d.7.8.5.5.5.5.4.d.d @ Y M M M M M M M C C M b m M M m c m M Z M v m C R % < R M M M M M M M M M M T 5.5.8.k.8.5.5.4.3.8.8.(.m.J [.+XS.D.$XR.@X",
"OX#X_.!.D.v.p.p.r.$.R E Y R E J G *.q + m c c 9 9 9 v b 9 9 b c 6 9 b v c 9 9 7 9 9 6 6 F % ; b 9 0 7 9 9 9 9 b v 9 b Z Y ^ 1.P ^ <.T F Y R u.t.D /.~.Q.g.!.$XoX",
"0.N.N.m.Q.m.} ) g < 6 v c 9 c c c c , + o # # # O # = # O + # + + o # # o + # + + + + # % o   O # + + + # + + # $ # O : c c c 8 v v c c 9 C Q L b =.r.m.M.i.n.6.",
"2 6 9 9 9 6 > $ $ $ $ $ $ $ $ $ 3 c 7 o   X     . .     o o O o O X     @ o .   . . . . + #     .       X       o o . + > 9 9 9 ; : 3 : : < c 6 v M M b n b c n ",
"] x i h { K 6 8 f j ' [ [ j u f [ ' O.S N 5 c ; < M m B V F F b - # ; < M Z F V 9 ; b H F Z F b 9 7 , 7 V S Z S k [ i v v L U ] =.} ' S S ' [ =.] e.z O.g f x e.",
"XX$XoXJ.L.,.7 g d.d.h.k.d.u.7.u.u.I D T E Y R R R R E Y F R ~ E , + F R R H R R T Z R T F F R R T R G Y E Y H R =.p.} S a r.r.u.y.u.d.7.h.d.w.9.y.F.F.F.F.oX$X}.",
"OX=X,XW.Z.%.3 g 6.5.5.5.5.5.5.6.E M m M M M m M M M M M M M M F e o N M c M M M C M C b c M M M 9 2 > b m n m m b G w.S t 7.3.^ 5.5.5.5.5.5.<.4.8.s.Z.S.D.,X%XOX",
"L.R.$XD.x.#.: x h.5.5.5.6.4.8.7.E M M M M M M M M M M M M M M H b X F Z M M m M M M M m b M M M M m m M M M M M c Z $.w w u.5.5.5.5.5.5.5.8.6.5.h.s.x.S.S.$XR.I.",
"OX#XY.D.Z.#.: f h.5.5.8.2.1.5.5.<.Z M M M M M M M M M M M M M F e X Z Z M M 7 c b M M M M M M M M M M M M M M M M M G % & $.3.5.8.$.^ 5.5.5.5.5.7.x.c.c.S.@XR.OX",
"@XL.F.S.W.$.3 x h.^ 5.5.5.4.5.5.E Z M M M M M M M M M M m b b T t o G M b M b < b M M m b b M M m M M M M M M b b M E - % Y J 3.5.5.4.5.5.5.5.3.5.s.S.c.S.J.oX X",
"!.K.(.J.D.>.7 t G Z G R R F Z F H F Z 9 7 > 6 9 6 9 9 v 9 3 3 m , X < < : 7 c 6 > > 6 9 b 9 9 6 : 9 6 9 7 9 v 6 > 6 m + = 7 < m Y E H Z F R E E 1.u.d.E.F.).J.Q.",
"! @.,.,.K C 2 $ 3 3 7 6 6 > > 9 6 7 6 + o o o o O O O O + O . O o X o o o + o + X o + + + + + X . o + O O O O + O o @ o   o o + + - > > 6 v v b N f ! =.,.,.@.~ ",
"6 0 Z m V P 5 2 2 2 : $ $ > 3 ; 2 2 : X o o     .   o o + = + + ; # + # # + #   O + # + + O   o .   .   X o @ + # + = - ; % % + + @ = 6 7 w 7 8 ; 2 m M C J Z m ",
"Q.t.,.W m.D.p.w.|  ._ 4 : D  .e.q.q.' b R F 7 ; e b J E R R R Y H T G R P e = + m R J J G b m R Z ; 6 e M R R R T J J O.=.}  .} 5 - t e. .e.] =.L ] D.N.A.H.).n.",
"$X%XXXz.Z.S.r.8.6.h.u.w 6 ;.h.6.8.2.2.H H Z F F F F G J G Z Z Z M Z Z F T G = < T F Z Z Z C Z F Z F Z F H G J F Z M Z Z V D $.d.j : O.u.%.3.1.5.6.y.Z.F.J.|.%X*X",
"OX#XK.W.S.S.d.8.1.4.y.u 5 ,.5.5.3.~ 3.T m M M M v 6 n n c v M Z C M M M M F + < F M M M b 9 b M Z M c b M M M M M M M M M M R 6.O.; &.5.^ 5.5.5.5.5.d.S.c.|.#XOX",
"OX#XK.S.S.c.d.5.8.5.y.u 6 r.5.5.5.5.<.Z M M M M b b M v c m M Y F M M M C J + e J M M b n M M M M Z M M M M M M M C C v M m T 9.( ; _ 7.5.3.4.5.5.5.u.S.c.K.#XOX",
";X#X|.S.S.S.d.5.5.5.>.u 5 e.5.5.5.5.4.H M M M M m M m m M M M M M M M M M F # 5 F M M Z M M M M M b 9 M M M M M M M C M M Z 3.7.O.c =.7.5.6.1.5.4.8.| Z.c.|.%X;X",
"OX*X_.c.S.W.8.4.^ E e.u 5 e.<.4.5.5.5.F b m M M n m M M m b M M M M M v b H + e F b M Z Z M m b M M b b Z H M b M M Z Z M M Z Q z 6 ' 1.<.5.3.4.1.6.o.Z.c.J.@XOX",
"i.+XoXJ.D.o.;.^ Z C B 3 3 B m F F F F v > 2 7 > # - ; < ; : > 9 6 6 < $ - - O + - - 6 8 9 7 9 : 6 7 - - > < > > : 7 9 7 9 > $ - ; + t b Z F T R <.=.A.D.K.Y. Xm.",
"Z ! W ! L a w 7 6 2 : $ $ $ : > : : 2 O o o o         o X . o   o o o o o O +     X X X o o o O . X X   X   o o o o . o . o o o + O + = : ; 6 7 r u a L ! W W Z ",
"$.<.Z b w w 7 2 w r w w 3 5 y w 7 3 $ O + % + @ + * & + # = # + + = = = % # : - = = ; > : 6 = 2 - # # : ; : > ; > ; = - : = # = & & & * 1 & - ; 2 > 8 6 b Z <.-.",
").o.=.*.r.u.;.=.o.e.o.z.] r.r.s.a.=.6 : k r.} :.=.o.*.F F Z Y G R R R E R Y H F Y T #.:.Z 7 6 P J F Z J ~ Y T T T Y T R E Y H W  .r.| r.p.s.r.p 2 w r.| *.=.o.D.",
"p.F.M.6.6.5.5.8.6.8.7.6.8.6.5.8.6.i.t 2 ,.h.6.6.6.6.8.5.5.<.2.5.8.5.5.5.8.5.5.5.5.8.6.7.-.8 r 6.5.5.8.5.5.8.5.5.5.1.R 4.5.5.5.8.9.6.7.8.5.7.h.W 6 a w.7.8.M.D.a.",
"| S.d.5.5.<.3.5.5.5.5.5.5.5.5.4.5.y.a 3 i.8.5.5.5.5.5.5.5.5.7.<.5.6.2.<.<.4.5.5.5.5.5.8.e.7 p y.5.5.5.5.5.5.5.4.E 6.2.5.5.5.5.5.4.5.5.4.3.5.7.&.> ! 7.5.3.d.S.| ",
"..G.M.5.5.<.I 3.5.5.5.5.5.5.6.5.5.7.p 4 p.8.5.1.#.3.5.5.5.5.2.5.5.6.6.;.4.5.5.5.6.d.h.5.-.6 i h.5.8.5.5.5.5.5.5.5.4.<.I 3.5.6.=.~ 3.3.3.^ 5.6.W > O.8.8.<.M.F.{ ",
"C.F.B.4.4.6.6.E 5.5.5.5.5.5.5.5.4.w.a 4 e.8.5.6.7.5.5.5.9.u.6.5.5.5.2.5.5.5.5.5.h.h.8.8.t.r a y.5.h.8.5.5.5.5.5.4.E V D ^ 5.6.h.8.3.4.5.5.5.9.*.6 &.7.5.5.M.G.| ",
"C.^.].9.8.9.7.7.6.9.9.6.6.6.y.;.7.a.f 4  .7.4.4.4.4.4.5.h.6.8.5.<.3.6.6.7.6.9.7.5.4.5.k.A.8 g N.4.5.6.5.3.5.7.;.6.1.Q ~ 7.6.4.4.4.6.6.3.3.3.k.{ > ] 7.2.6.g.E.' ",
"i.`.:XQ._.XX(.^.B.E.s.W.a.r.m.j.f.!.p 7 m.m.u.f.y.y.u.u.r.s.v.o.=.a.!.s.d.h.s.M.7.k.g.~.Q.7 h A.t.u.$.$.e.M.a.=.u.u.r.e.p.M.k.$.w.r.=.-.=.=.A...: j e.t.a.A.D.` ",
"n.1X|.*X#XXXJ.F.H.G.G.J.J.I.T.@XY.|.K h 3X_.F.G.Z.S.G.G.S.G.G.c.S.S.G.S.Z.c.S.S.x.S.S.F.D.r r A.G.S.Z.D.S.S.x.z.x.Z.E.z.c.Z.Z.Z.z.v.S.S.S.Z.S.@.6 K Z.D.D.D.H._ ",
"/ 4XQ.].N.o.m.X.|  .s.m.o.m.Q.Q.Q.m.s A { ..n.......X.X.' ] ] [ z ] ..] O.) | { ( _ L ,.` 2 : x ..] &._ ! s f S L  .,.V f a _ &.a O.m.a.&.a h F C m D L g D L u "
};
