/* XPM */
static char *_0676_a9a6ded85132d61cc0524df0d48cf10ff94149737935606c4450569dff8a26e1[] = {
/* columns rows colors chars-per-pixel */
"50 50 12 1 ",
"  c #72751B",
". c #7F8226",
"X c #787B21",
"o c #656C17",
"O c #B3B0A9",
"+ c #A2814F",
"@ c #636917",
"# c #9CA8AD",
"$ c #BD9842",
"% c #A2783C",
"& c #C6A740",
"* c white",
/* pixels */
"                                                  ",
"                                                  ",
"                                                  ",
"                                                  ",
"                                                  ",
"          .XX                                     ",
"           XXX                                    ",
"            oo                                    ",
"                                                  ",
"                                                  ",
"                                                  ",
"                                                  ",
"                                                  ",
"                                                  ",
"                                                  ",
"                              XX                  ",
"                             .X                   ",
"                            XXo                   ",
"                        ..X XXo                   ",
"                         .XXoXo                   ",
"      OO                 oXXoo                    ",
"     O++O OO              oo                 .    ",
"     @OO@O+O                          X..   .     ",
"    OO@@ OO@                           .## ..     ",
"    +O   @@                            #++#XX     ",
"    @@                                 @##@OO     ",
"                                        @@ +O     ",
"                                           @@     ",
"                                                  ",
"                                                  ",
"                                                  ",
"                                                  ",
"                                                  ",
"                                                  ",
"                                                  ",
"                                                  ",
"                                                  ",
"                                                  ",
"        ..                                        ",
"         .X    .                                  ",
"         XXX X.                                   ",
"      .XXoXXXXo                                   ",
"       XX$$oXXo                                   ",
"       o$%%$Xo                                    ",
"        @$$@ &&                                   ",
"      && @@  %&           .X                      ",
"     &%%&    @@      .X  X.o                      ",
"     @&&@            oXX XX                       ",
"      @@              oXXXo                       ",
"                      oXXo                        "
};
