/* XPM */
static char *_4729_92dc8f343f5a6732ee1295bd39f10ef9dcf0663fffee708dea58f2a2e8f78f14[] = {
/* columns rows colors chars-per-pixel */
"50 50 110 2 ",
"   c #0D2B45",
".  c #0E2E4A",
"X  c #112D47",
"o  c #122E48",
"O  c #1B3145",
"+  c #15314B",
"@  c #1B334D",
"#  c #1A3650",
"$  c #1E3B55",
"%  c #21354F",
"&  c #2C3A4A",
"*  c #243650",
"=  c #203C56",
"-  c #2A3A54",
";  c #253E58",
":  c #2A3F59",
">  c #333E55",
",  c #363F59",
"<  c #3C404E",
"1  c #2F4256",
"2  c #2D415A",
"3  c #35425C",
"4  c #3B445D",
"5  c #3D485F",
"6  c #3D4660",
"7  c #3E4960",
"8  c #49484F",
"9  c #414652",
"0  c #4D4E57",
"q  c #42455E",
"w  c #4A4B5D",
"e  c #504C56",
"r  c #555157",
"t  c #6C5A57",
"y  c #67575F",
"u  c #6C595E",
"i  c #775E57",
"p  c #725B5B",
"a  c #7E605A",
"s  c #424761",
"d  c #444962",
"f  c #4C4B65",
"g  c #4E4C69",
"h  c #514D67",
"j  c #544E68",
"k  c #545167",
"l  c #5C5167",
"z  c #575169",
"x  c #5C526A",
"c  c #605464",
"v  c #6A5764",
"b  c #6E5966",
"n  c #63556D",
"m  c #68576E",
"M  c #65586D",
"N  c #6A596D",
"B  c #745B64",
"V  c #7E5F65",
"C  c #725C6E",
"Z  c #785E6D",
"A  c #645670",
"S  c #6E5B71",
"D  c #745D72",
"F  c #785F73",
"G  c #7F6063",
"H  c #7D616E",
"J  c #7C6174",
"K  c #7F6378",
"L  c #87655E",
"P  c #8F675E",
"I  c #93685E",
"U  c #996B5E",
"Y  c #A26E5F",
"T  c #A5705F",
"R  c #AA725D",
"E  c #B6775F",
"W  c #B9785D",
"Q  c #836163",
"!  c #8D6563",
"~  c #836269",
"^  c #8C676E",
"/  c #8E686D",
"(  c #906760",
")  c #946964",
"_  c #9C6C66",
"`  c #956A69",
"'  c #9B6D6B",
"]  c #816374",
"[  c #8A6771",
"{  c #8C6875",
"}  c #836479",
"|  c #896779",
" . c #8C697B",
".. c #956C75",
"X. c #9A6E74",
"o. c #916B79",
"O. c #A16F63",
"+. c #A67164",
"@. c #AC7366",
"#. c #A5726F",
"$. c #AC746B",
"%. c #B37667",
"&. c #BB7A64",
"*. c #B27668",
"=. c #A37170",
"-. c #A87370",
";. c #C37C5F",
":. c #CB7F5B",
">. c #CE805A",
",. c #D18159",
/* pixels */
"> Y ! n A n n Z o.x o       + 1 8 u X.#.=.X.B B B B B B B B N B n n n n n n x n B B B n n x n / Y > ",
"v *.@.$.#.$.$.&. . .%     X w Q *.*.*.*.*.*.*.*.:.:.,.:.,.;.W :.*.#.#... .X.$.*.,.,.>.$.$.$.#.@.*.b ",
"n  .X.:.;.&.:.#. . .>     o ` &. . . . . . . . .~ Q _ Q ' -.#.#.-.#.#.o. .X.! Q V V Q ! #.;.:.=. .n ",
"B $. .X.%..... . . .N o   o J $.=. . . . .o. .o.{ | } }  .X.X.X...X.X.X.X.o.} } S S A } ..*.X. .$.B ",
"b -. .o.%.&.-.X.F n D o   o J ' %.#.#.#.#.] F F O.#.-.-.#.Y R Y +.T T Y +.+.-.-.-.-.-.@.,.*. . .#.B ",
"b =. ...W P P Q j m F O   o D ' R ! ( ! ! l j j l Q ! ( ~ j j j j j j j h B ! ( ! ! ( ! ! &.X. .X.v ",
"B *. .X.Y g h h j F ] o   o J -.Q g g h h j j j j h h h j j j j j j j j h h h h h h h h g T X. .%.B ",
"B *. .X.R j j j j z Z o   X z #.P h j j j j j j j j j j j j j j j j j j j j j j h j h j h +.X. .%.B ",
"B =. .J Q j j j j n F o   X M ` B h j j j j j j j j j j j j j j j k d h j j j j l j j j j Q J  .#.B ",
"n  . .D j j j j j J ] o   o ^ ) h 7 h j j j j j j j j j j j j z f 3 h z j j j j j j j j j j D  . .n ",
"B $. .X.) l j h j J Z o   o ^ I g s 3 f j j j j j j h f f h j z D n z z j g f f f f j j c ) X. .#.b ",
"Z O.-.E u u d 6 s ] , X   X f 2 = = = 2 s d d d d 6 = ; = , d d f f d d f 3 = ; = ; 5 d u u %.-.#.Z ",
"4 9 i t ; = $ $ + 3 o         = $ + = 2 : # $ $ $ + # # $ = # $ $ + + + $ $ # + # # = = $ = t i R p ",
"    .   + o + o               X .   o + +   + + +       o o . o .       + +     o   o o o + o . & O ",
"                                                                                                    ",
"                                                                                                    ",
"              + , 4 1 3 , , , 6 , 3 , *           X ; , , , , , 3 3 3 +   % 3 3 -   X       .       ",
"- ! ! C D S Z v q x d g f j 6 j h h z h *       X - g j j d 2 3 f g f q d C J J C n C Z C D C Z C - ",
"0 @.' X.-.[ J U L S S S S A : = 6 , d f d o     * 6 6 s 2 = $ = = 2 $ 2 : 2 ; : 2 2 n D } o. .K J 4 ",
"r ) h C ! 0 $ $ = = = = = $ = = $ = = : 4 o     : 6 $ $ $ $ = = = $ $ $ = = = = $ $ $ $ 6 J D h M 3 ",
"4 b h h v r $ $ = = = = = = = = $ $ $ $ d +     s ; $ = = = = = $ $ $ $ = = = = $ $ = = 2 x x S x 3 ",
"0 Q h h V p $ $ $ ; = = = $ = $ $ $ $ 2 h +     6 ; = = $ $ = = $ # 2 $ = = $ = $ $ = $ 7 z z z S 5 ",
"s D d x S k $ = $ 3 # = = = = = = = $ 6 f @     4 ; = = * $ $ = 2 2 $ = $ = = = 2 $ $ $ k M k h J 7 ",
"3 n d n m k $ = = = = = = = = = = = $ 2 f +     s 6 = = 3 : = = $ $ 2 = = = $ = $ $ $ $ k A j j x 3 ",
"7 m j j N k $ = $ $ $ $ = $ = $ # = = ; s @     q : = = = : = $ = = $ = = = = + = = $ $ k m j h S 6 ",
"7 J h h Q p # $ $ $ $ $ = = : : # = = ; d +     s : = = = = = = = = = = = $ 7 + = = = $ h n h h D 7 ",
"3 M M n l y f f 6 6 6 = = = = = # # = 6 j o     s f = # $ = = = $ $ = = = $ 3 2 $ + $ = 4 f N n n 3 ",
"2 s 3 3 @ - 4 f d , : = $ = $ +     o @ s O     q * o X $ = $ = $ @ = = $ + + + +   o + ; + , 3 7 2 ",
"X @ #         + @     o o # o           o X     o       . o . o X   o . X                       + + ",
"          + #                                                     X                                 ",
"                                            X                                                       ",
"                                                                                                    ",
"@ @ X   + @ % @ @ @ @ @ % @ o o . . .   X   .                                                       ",
"5 5 9 3 h h h h j j j f 5 4 * + + # +     . +                           @ - * - - * - - * - * > * . ",
"3 d 6 3 2 k J M 4 3 3 2 $ $ # # # # # $ # + # # # + # # + # 2 3 -       * j z j j j j j n F F D 4 $ ",
"# s f f z 6 6 3 $ = $ $ = = $ = = = $ = $ 2 $ $ $ $ 2 $ 2 $ 3 f k -     * j j j h f h l S n n x 7 = ",
"@ h j j 6 = $ $ $ = = $ = $ = = $ $ $ = = = = = $ $ $ $ 2 $ $ 2 J 4     @ h f 6 ; = = 2 j j j h S 5 ",
"@ k j z d = = = = = = $ = = = = = = $ $ = = = = $ 2 $ $ $ $ $ 2 n 3     % h 2 $ = = $ 6 n j j j D 7 ",
"+ s h j 7 = = $ = = + + = = = $ = = = = = = = = $ $ $ # $ $ $ $ h 3     % j > # # = $ 6 S j j j D 7 ",
"% 6 d x x = = = = = + o $ $ = = = = = = = = = = $ $ = # # # $ 2 h ,     % j 3 ; 6 $ * : j j j j D 7 ",
"* x j x z = = = $ = $ = o + $ $ $ = = = $ 2 = = = = $ = = = $ ; f ,     * j 2 $ $ $ 2 $ @ q h h D 5 ",
"> ! j j d $ $ = = = 2 2 $ + # $ = = = = $ $ = = = = = = = = = ; h >     * k 2 $ $ $ 2 ; q x j j S 5 ",
"> ~ h j n $ = = = = = $ = = $ = $ $ $ $ $ = = = $ = = = $ = $ = h ,     ; : = 2 = = $ 6 D n z j f 2 ",
"> ~ h 3 m : ; = = $ = = = $ = = $ $ 2 2 $ $ = = = = = = = = = = h ,   @ k 6 d n = = $ 6 S j j j S 4 ",
"& u j d D f @ $ $ = = $ # # # + $ $ ; 2 $ $ = $ $ + # # + # # 2 n ,     & D x 5 = = * : d f h h D s ",
"@ d 6 q n 5 4 s s d d d 4 6 d x g ; = $ = s 3 $ # . + $ @ ; - + 7 =     @ % @ + + + + @ , f j n l @ ",
"- N j n ; 6 s h k h S m 6 : : s 7 = = = 6 d : * ; f f f f h f d q +     X , Q 4 f f q @ @ - n n q   ",
"@ f ] z 6 k n B f 2 = = $ $ $ = = = $ = = = 5 j j j j j j j s 4 6 w     4 B 4 f j h j h h h h q %   ",
"  q  .D j j ] Q d 4 s 6 6 6 4 = = = 6 6 6 6 3 6 h j j j j j j s 6 *     & 0 6 , h j h j j j m >   X ",
"  O > - % @ - @ % % % % % % @ o o + @ * * @ . . + % % @ % @ % % @ .       o # X % % % @ % % %       "
};
