/* XPM */
static char *_633099962875[] = {
/* columns rows colors chars-per-pixel */
"80 80 88 1 ",
"  c #0D2B45",
". c #0F2E48",
"X c #102D47",
"o c #112F48",
"O c #1B3247",
"+ c #15324C",
"@ c #1A344E",
"# c #1B3650",
"$ c #1E3A54",
"% c #21354F",
"& c #24384F",
"* c #243751",
"= c #223C55",
"- c #2B3C55",
"; c #263E58",
": c #2B3F58",
"> c #313D57",
", c #323E58",
"< c #2B4057",
"1 c #2C405A",
"2 c #344055",
"3 c #3C4357",
"4 c #34425B",
"5 c #3B445D",
"6 c #3D4660",
"7 c #3E4860",
"8 c #494957",
"9 c #42455E",
"0 c #48475D",
"q c #44485F",
"w c #4C4A5A",
"e c #524C5D",
"r c #5A505B",
"t c #6D5A5D",
"y c #625359",
"u c #7B5F5C",
"i c #434761",
"p c #444962",
"a c #4B4C65",
"s c #524E67",
"d c #584F66",
"f c #544E68",
"g c #535067",
"h c #5D5266",
"j c #565168",
"k c #5B526A",
"l c #625464",
"z c #685764",
"x c #6B5866",
"c c #63566C",
"v c #6A596D",
"b c #745C66",
"n c #7E5F62",
"m c #725C6D",
"M c #7A5F68",
"N c #6D5A70",
"B c #745D71",
"V c #795F73",
"C c #7F6066",
"Z c #7E616C",
"A c #7D6173",
"S c #81625D",
"D c #A26E5E",
"F c #866366",
"G c #8B6566",
"H c #84636B",
"J c #8B666B",
"K c #8F686B",
"L c #936966",
"P c #9A6B64",
"I c #946A6B",
"U c #9A6C6B",
"Y c #856472",
"T c #8A6773",
"R c #8D6975",
"E c #966C75",
"W c #9B6E74",
"Q c #926B79",
"! c #9F7072",
"~ c #A26E60",
"^ c #A16F6A",
"/ c #AB7364",
"( c #A6726E",
") c #A9736C",
"_ c #B77866",
"` c #BA7A66",
"' c #B27769",
"] c #A27171",
/* pixels */
"nUJLT, &tP)^LLJ/IK!!/TUJMLG~~PJm:+5AZPDD~~PPJAAJ~PJJL~~~LTk;@jAF~~~~~PLJVYG~GJUS",
"H]_)Qd e^QQQQQQ!!W)_'!Q!))W](]!Qp*vQ!(PLII()]WEJFF!`_]](]WA;:YW(^LLIW((]EEJFK_(Y",
"JQ)UVcX0)UUVBIUYBKVBIKBTU^UUGGUQs$AHFZFFIUHHFFJUIIUJJUIFLUR44YFHHFGELFFFFIUI^/QK",
"LWGhkzX0Pllffhlkfhffhhfdhhhhfklvj=vksfffhhfsffdhhhhdfhhfkhB44NaasfdhhffffhhhdLEG",
"JRbfkcX0Hsfffkkaffffkkasfffffffcg$ckfffffffssfffffjjffffffv4:ccjfffffffasffffmRJ",
"JQbgkc ez6affappfffsfpasafakkafBg$vk6fkfkkfcckkkkckkffffajA4-NgafffaaskffaaafbEH",
"ruw1:- O=#:::$$=:64:;#;:::*64;=5@+==$454=$=666:==455;:4:==2o+=#=:::$=-:::=#=:wSF",
" X        X X  X.XXX    X   ..       ...  .      o .......   . o.             oO",
"XXXX@*#=**o  X@++$+X*+  Xo+$#***@*&&*XX o*#%#oo*o . X$#$%%*@*%%@XX O*@##X@&+XXXX",
"yHbxlfkp6pio -a,164-65>:,,asap665566a> o6f6:66,64466,psai66pffhj- @ip:665agacmva",
"tvb3,:1;==6#o:;=$$$$==;;;;;;:=$$$$$=;,X-ap,=$$$$=;1$==114;$=1<1a,X:;=$$==$==4vNa",
"ljx:==$$=$,#@4=$$66;$$=$==$=$======$;5X,p$$=111$==$=$=$=:4$=$$=j,X:==$==$=$=;akf",
"ggc<$=$$$$4%o6==$===$$$$$=$==$$$$$$$<6o*6$$=$<$<=$=$$<$$$1;=$$$7>X,;=<$<=$$=:kff",
"ghx4;;;;$$4%+5=====$=#$*$$=$$;44=<$$$1o-1$$$$$$$$=$=$$$===$=1<=7>X,;$=$$$<=$:kkk",
"5q356:$$@+:%o,@$$$$=$$=$$$$$#=;;$$$+#,.*=+$$$$#+++$##$#$$$$$$#+<- :#$$$#$##+#>i6",
"+o +X...   XX    .ooo o  . .  ..+... .  .......    .....o..... .X X ...    .   X",
"                                                          .                     ",
"%wwq5-%o+o++o+++..   o..oo+.++++.oo+o@+.+@+o   .....+.o+#++..+++@#+->-%  %>>:6,:",
"ebZzk5::$++$#++##$  +##++##@#+++.+@#+$#@####+  ##++$+$#++++.o#+#=>,595a> 5faacca",
"hjh4=$=$o        o. o                .      +..o                XXX   -9 ,,$1jkk",
"aja<#$$=.        o+ +                      .$.o+                   X  *6 -1$;pfa",
"pjj=#$=$+     o  ...+.       X  o+      .   + oo           .. ..      :, >:=1kfa",
"jjj1$$$$o        ++ #        o o .     ..   +ooo       +o.ooo  .      :, $==;jkk",
"jks=$##$        .+o.#                       #oo         .             ;, ,::6jkj",
"ps6:#X X         .o                                                   X@+,i0aks5",
"oX XXX                                                                   XoXXXX ",
"*-**#oo  oooo.  oo                                            ooo+ooo+*:-*-*-%-*",
"avvfp#.o##o@$#+#$o                                          .##oo..@$=pp69pafcNa",
"fkk6=o +X                                                   o#.     .#==$$==6kfj",
"afji=o +o   o                                             ooo#   o#  +$$===$6fap",
"ffkp$o +o  oo                                             o .#    @  .+$;;=$pkkf",
"jkk6$o +o                                                 . o#       .+=;$=$6kkk",
"afki:# +.                                                            o#::664afsp",
"%***%.                                                              oooo***=****",
"      .                                                                         ",
",,,,>-,;@#+   +#                                            OoOXX  @+$;>>>,,,564",
"vcvi111$##+. o#X                                          Xoo++:$ +;##:4::66fccc",
"Vdf4$$$$$$+ ..                                                X+# #$=$====$$6ffV",
"Vfkp$;;=$$# .@.                                                @+ ##$$=$==$$6ckA",
"Nfk6$;$$$$$ .#                                                 +# #o  #$$$;$6jjN",
"Vfk5$==$$$# .#                                                 o$ ++*#o+#$$$5hkB",
"vfa5;$##o.....                                                 X. o XXoo+$19psfv",
"***>-#X                                                               oo++*,>-**",
"X.XX       .                                                    .   X     XX   X",
"idapi,,=#@##@@##@o                                         o###$$$$$#=:O >iipad5",
"skk6:;=#+.++o+Xo+@X                                        ooooXX@ooo@69 5a65kcs",
"kfk;$$=$@        X                                         o@     X X -5X,1$;kjk",
"fkp=$==$X        o                                          *#  XXX   -, 5:;;5fj",
"pfp;$$$$+oo.     Xo                                          XX       :, ,:=:afi",
"aff;$==$$#o.     @o                                           OX      :5+ip;;ffa",
"ah5-:=##+o       +X                                           XX      $:X>:**>fi",
"*5,,,,$++         X                                            X       XX*=,>-,$",
"         .                                                         .            ",
"#+++>@ oo++##o.+@@+                                     @#+  X+@##+.X#####+##o+#",
"6fa46- o##++++o+OX                                      @++XX#%oo+#o++ooo::1,sf6",
"fkk;$o o    .  .                                          @XXo           $==;kks",
"pff1$o +o   .  .                                          ...+.       X +$$$:kfi",
"afs;$o o+   .                                                o   .      .$$;;afa",
"ap4==o ++                                                                #$$=1pa",
":6,44* o                                                                 @#$1,5-",
"@*-*oX                                                                  .++*=-% ",
"    XoXX.                                                           .           ",
",-*o-5$####  .## X                                         +#+$$.  +###@X#4:4p61",
"hk5==;+  ++o +o.                                              .@+ +@. .  @;:66kk",
"fk6;$=$ . ooo+                                                 X+ +       @$$6ka",
"sf6==$+ o ++o+                                                 X+ +.      @$$6ka",
"kk6$==$   +o.+                                                  + +X o   .@$$6fk",
"sk4$$=    +oo+                                                 X# #      .#$$6fa",
"*da51$o   .  .                                                    .     .#-:5ai-",
" ++##oo                                                                 .X@%@%% ",
"@X  oo.   o. ooo       X  X                                     X. o.          %",
"*=#+#+++$+$$##+##+. +#+++$o                X                   o$$#+$#$o .#@+@=:",
"=:*XX   o XoX  X +o @+o  o                .o+ Xo                     Xoo Xoo *;#",
"*;#              ++ *X        o  X          +oo+         XX           X# oo  @;=",
":;*  oo       X  +o *   o     .  oooo   o++ o.oo       X      X#       X +X  *;-",
"w4*  oo          ++ #  oo   o+.         @+  *.o+          oo  X+     Xo* +o  -;-",
"0:0o ooo ooXXooo.@+.#.   X  @      oo o.   O, *-  X   XoooX oX   o    @* ;X  *=%",
">5s,4i,:5=$:##*@*-+ --$**o#o$-=$+=:*#X$* @*-,X@:*@XX#-$o+o#=$*oo+=#oo*:: @@$=::#",
"3cihfp6;:=;45pffa9@@e4::==:;;=;==;;;$$;;$==:,oX=;;$:;;=$==$$=;=$$=====:* o;:::4-",
"&d9e3::-#*:,=,,95:@X>,,:>:,>#==+o*:=o#=-o$+*&XX%:*+*oooo+:* Xo*# #>>#o+X  o%%@+X"
};
