/* XPM */
static char *_6656_8d3f5a6ff71cd0a24b6bb0d313a953268d3231bf3e90404e0fb23e8795cd0585[] = {
/* columns rows colors chars-per-pixel */
"50 50 39 1 ",
"  c #532E17",
". c #542E18",
"X c #5B351E",
"o c #5E381F",
"O c #5F3921",
"+ c #633D24",
"@ c #673F29",
"# c #674127",
"$ c #664028",
"% c #6B452A",
"& c #6C4B2D",
"* c #71492F",
"= c #6F4A30",
"- c #734D33",
"; c #765034",
": c #785135",
"> c #775339",
", c #7A553A",
"< c #7E593D",
"1 c #815B3F",
"2 c #835D41",
"3 c #866043",
"4 c #8A6346",
"5 c #8D6649",
"6 c #8F684B",
"7 c #916B4D",
"8 c #956F51",
"9 c #967152",
"0 c #9A7556",
"q c #967559",
"w c #9B7759",
"e c #9D795A",
"r c #A27E5D",
"t c #9E7D61",
"y c #A17F63",
"u c #A3805F",
"i c #A58363",
"p c #A98664",
"a c None",
/* pixels */
"aaaaaaaaaaaaaaaaaaaaaaaaaaaaaaaaaaaaaaaaaaaaaaaaaa",
"aaaaaaaaaaaaaaaaaaaaaaaaaaaaaaaaaaaaaaaaaaaaaaaaaa",
"aaaaaaaaaaaaaaaaaaaaaaaaaaaaaaaaaaaaaaaaaaaaaaaaaa",
"aaaaaaaaaaaaaaaaaaaaaaaaaaaaaaaaaaaaaaaaaaaaaaaaaa",
"aaaaaaaaaaaaaaaaaaaaaaaaaaaaaaaaaaaaaaaaaaaaaaaaaa",
"aaaaaaaaaaaaaaaaaaaaaaaaaaaaaaaaaaaaaaaaaaaaaaaaaa",
"aaaaaaaaaaaaaaaaaaaaaaaaaaaaaaaaaaaaaaaaaaaaaaaaaa",
"aaaaaaaaaaaaaaaaaaaaaaaaaaaaaaaaaaaaaaaaaaaaaaaaaa",
"aaaaaaaaaaaaaaaaaaaaaaa><<<>aaaaaaaaaaaaaaaaaaaaaa",
"aaaaaaaaaaaaaaaaaaaaa2>qqttt>>aaaaaaaaaaaaaaaaaaaa",
"aaaaaaaaaaaaaaaaaaaa>tt=&=%%ti=aaaaaaaaaaaaaaaaaaa",
"aaaaaaaaaaaaaaaaaaaa-t=>122<@t=aaaaaaaaaaaaaaaaaaa",
"aaaaaaaaaaaaaaaaaaa-5i=<232>@q2+aaaaaaaaaaaaaaaaaa",
"aaaaaaaaaaaaaaaaaaa=5i=><32>@q<+aaaaaaaaaaaaaaaaaa",
"aaaaaaaaaaaaaaaaaaa-6ii>232>qq2Oaaaaaaaaaaaaaaaaaa",
"aaaaaaaaaaaaaaaaaaaa@5iiitteq<.aaaaaaaaaaaaaaaaaaa",
"aaaaaaaaaaaaaaaaaaa%:##55512oo=.aaaaaaaaaaaaaaaaaa",
"aaaaaaaaaaaaaaaaaa%6544++++O--<=.aaaaaaaaaaaaaaaaa",
"aaaaaaaaaaaaaaaaa%687e4444,<-4<--.aaaaaaaaaaaaaaaa",
"aaaaaaaaaaaaaaaa%67800r445<,642<&-.aaaaaaaaaaaaaaa",
"aaaaaaaaaaaaaaaa%69ee0rerw00944<,* aaaaaaaaaaaaaaa",
"aaaaaaaaaaaaaaa%6,9eruuurrw098441O* aaaaaaaaaaaaaa",
"aaaaaaaaaaaaaaa%671euupprrr00994@1&.aaaaaaaaaaaaaa",
"aaaaaaaaaaaaaaa%69e5uupppirr099*2,&.aaaaaaaaaaaaaa",
"aaaaaaaaaaaaaaa%59rr77ppiirr8::411* aaaaaaaaaaaaaa",
"aaaaaaaaaaaaaaa*699rup67644116711,% aaaaaaaaaaaaaa",
"aaaaaaaaaaaaaaa%69rrppppiir997611,-.aaaaaaaaaaaaaa",
"aaaaaaaaaaaaaaa*59ruupuppur997711,*.aaaaaaaaaaaaaa",
"aaaaaaaaaaaaaaa*67rrrupprrr89611,,&.aaaaaaaaaaaaaa",
"aaaaaaaaaaaaaaaa+69rrrrpr0r89641,&.aaaaaaaaaaaaaaa",
"aaaaaaaaaaaaaaaa#%00rrrrrr089611,o.aaaaaaaaaaaaaaa",
"aaaaaaaaaaaaaaaa+%**000r0808651++O.aaaaaaaaaaaaaaa",
"aaaaaaaaaaaaaaaaO2&---0099776##+o& aaaaaaaaaaaaaaa",
"aaaaaaaaaaaaaaaaa$&-6;;;--*%&#<#O aaaaaaaaaaaaaaaa",
"aaaaaaaaaaaaaaaaa$-2---6;**1###&&.aaaaaaaaaaaaaaaa",
"aaaaaaaaaaaaaaaaaa+-22--;-%%&>&& aaaaaaaaaaaaaaaaa",
"aaaaaaaaaaaaaaaaaaa+-211<,>,>&& aaaaaaaaaaaaaaaaaa",
"aaaaaaaaaaaaaaaaaaaa@--<<,>&&&.aaaaaaaaaaaaaaaaaaa",
"aaaaaaaaaaaaaaaaaaaaa@@----&  aaaaaaaaaaaaaaaaaaaa",
"aaaaaaaaaaaaaaaaaaaaaaaoXX .aaaaaaaaaaaaaaaaaaaaaa",
"aaaaaaaaaaaaaaaaaaaaaaaaaaaaaaaaaaaaaaaaaaaaaaaaaa",
"aaaaaaaaaaaaaaaaaaaaaaaaaaaaaaaaaaaaaaaaaaaaaaaaaa",
"aaaaaaaaaaaaaaaaaaaaaaaaaaaaaaaaaaaaaaaaaaaaaaaaaa",
"aaaaaaaaaaaaaaaaaaaaaaaaaaaaaaaaaaaaaaaaaaaaaaaaaa",
"aaaaaaaaaaaaaaaaaaaaaaaaaaaaaaaaaaaaaaaaaaaaaaaaaa",
"aaaaaaaaaaaaaaaaaaaaaaaaaaaaaaaaaaaaaaaaaaaaaaaaaa",
"aaaaaaaaaaaaaaaaaaaaaaaaaaaaaaaaaaaaaaaaaaaaaaaaaa",
"aaaaaaaaaaaaaaaaaaaaaaaaaaaaaaaaaaaaaaaaaaaaaaaaaa",
"aaaaaaaaaaaaaaaaaaaaaaaaaaaaaaaaaaaaaaaaaaaaaaaaaa",
"aaaaaaaaaaaaaaaaaaaaaaaaaaaaaaaaaaaaaaaaaaaaaaaaaa"
};
