/* XPM */
static char *_288_1630b2d941ec21478b756a97ed0bb4615c249e6339f802fb57556c9c121b1467[] = {
/* columns rows colors chars-per-pixel */
"50 50 57 1 ",
"  c #52331F",
". c #533522",
"X c #543826",
"o c #563C2B",
"O c #593D29",
"+ c #5B412D",
"@ c #574031",
"# c #5B4534",
"$ c #5D4A3A",
"% c #614A36",
"& c #634D3B",
"* c #64503E",
"= c #69513E",
"- c #5F4E41",
"; c #5F5144",
": c #624F40",
"> c #645243",
", c #6A5543",
"< c #6C5846",
"1 c #635549",
"2 c #6A5748",
"3 c #665A4C",
"4 c #6C5C4C",
"5 c #715A47",
"6 c #715C4A",
"7 c #665D52",
"8 c #6B5E51",
"9 c #73604F",
"0 c #676055",
"q c #6D6254",
"w c #6E6659",
"e c #6F685D",
"r c #726354",
"t c #776857",
"y c #726759",
"u c #736A5C",
"i c #796C5D",
"p c #746E62",
"a c #796E61",
"s c #767165",
"d c #7A7265",
"f c #777368",
"g c #7B7669",
"h c #7D796C",
"j c #7E7B70",
"k c #817666",
"l c #807769",
"z c #817A6D",
"x c #827E72",
"c c #858275",
"v c #898376",
"b c #868479",
"n c #89867A",
"m c #8C897C",
"M c #908C7E",
"N c #8F8B80",
"B c None",
/* pixels */
"BBBBBBBBBBBBBBBBBBBBBBBBBBBBBBBBBBBBBBBBBBBBBBBBBB",
"BBBBBBBBBBBBBBBBBBBBBBBBBBBBBBBBBBBBBBBBBBBBBBBBBB",
"BBBBBBBBBBBBBBBBBBBBBBBBBBBBBBBBBBBBBBBBBBBBBBBBBB",
"BBBBBBBBBBBBBBBBBBBBBBBBBBBBBBBBBBBBBBBBBBBBBBBBBB",
"BBBBBBBBBBBBBBBBBBBBBBBBBBBBBBBBBBBBBBBBBBBBBBBBBB",
"BBBBBBBBBBBBBBBBBBBBBBBBBBBBBBBBBBBBBBBBBBBBBBBBBB",
"BBBBBBBBBBBBBBBBBBBBB5466666<BBBBBBBBBBBBBBBBBBBBB",
"BBBBBBBBBBBBBBBBBBBBkzlzzzzzziBBBBBBBBBBBBBBBBBBBB",
"BBBBBBBBBBBBBBBBBBB=cnnvzdlmvz=BBBBBBBBBBBBBBBBBBB",
"BBBBBBBBBBBBBBBB<9r9cnncllznmv=,6:BBBBBBBBBBBBBBBB",
"BBBBBBBBBBBBBByddtt9cvnvxzxnmv4rtairBBBBBBBBBBBBBB",
"BBBBBBBBBBB4iakutgktcvmnMmMmmvtzziad5=BBBBBBBBBBBB",
"BBBBBBBBBBaxziyiccvkzmmmmmmmmzdvbbxdrty9BBBBBBBBBB",
"BBBBBBBB6lndidcxcvvitnclxzcbmazccbbbzruzk=BBBBBBBB",
"BBBBBBB<izdaxccvbbh*&yq<344ydqlbbbcjcxpilt=BBBBBBB",
"BBBBBBtzxtaxxvvche3*+$$%%**,1>ydjxbxxxxtrxz6BBBBBB",
"BBBBBBhcsscbbbcw;$$$<<quuusuq*3qypgxcjxjpaxgBBBBBB",
"BBBBBrhsubmmmcq$$*8wuuuuussssqusy87fbbxxxrdx5BBBBB",
"BBBB=rt4tsxbmw#$3uuussssssgusssspp83fxxzairik%BBBB",
"BBdchhksdsssw$$quueqqqqwwuw0wuuspggw1dddzzllzzzzBB",
"B<cccccxcxxcq%queu01qqqqtwwwwuwqppfg2aNxxxnxnnvx5B",
"B9cchhhxxxxx>*wuuuqqspsssssssssqwfffy4xxnxxllxvx5B",
"B5zvkhsxbxbx%0pssw7wsssssssgggsqysfaf2xxxNxllkzv6B",
"B5cnhsscbbbc%0ssss7wsshgsgggsssqpssff4xxNxNdklxv5B",
"B6vmmxnnvbmc%qsssswwshhhhghshsstdfsfs3xnnvnnxmmn5B",
"B<mmnmmmmbcs%qsghssushhshhhhhgsuffspu2dxnnNNMvmn5B",
"B=nNNnnvkksu*qhhhhushhkhhhhhhhssffppw2aaaadnnxvx,B",
"B+upeyy8scvckwghhhsuhhhkhhhhxhssfgguqdxxjr88yyew+B",
"BO87ypr2qvvcchkshhsesssssssssstugfp8fxxxx88iau38OB",
"BB##axhp<sbcvccsshhfsksskskutsssfpypxxxxa>gxng##BB",
"BBBB8xxju3hmmmmcksshhhhhhhhhshssyaxxbbbf:8xxx4BBBB",
"BBBBopxxs*qhhbmccsuqtssssksskstsxxNbbNg:%yxNuOBBBB",
"BBBBB2ggdq28pnNbbbchttikiiiirrgvnmmmbs2;qydd$BBBBB",
"BBBBBB2gnxl89dxNnbczkvmmvvvvcaznnmmjw*2plgy$BBBBBB",
"BBBBBB#exxxja4wfzvnkvvvvccvcvcdnvgu1>qhzzp$XBBBBBB",
"BBBBBBB&ejnNnl9229itvvmvcccvvcti4>13uhzhu-oBBBBBBB",
"BBBBBBBB#2fcvzxdq,&,nmmvkdcmnv=%,4hczcd0#XBBBBBBBB",
"BBBBBBBBBB-8wzNxxguynMMmvvvmmv4yhcbcd8;@BBBBBBBBBB",
"BBBBBBBBBBBo$8efgjxtvMmmvmnmnv<dcdu3$+.BBBBBBBBBBB",
"BBBBBBBBBBBBBB-1378:aapuiuwwpu#=4*$+BBBBBBBBBBBBBB",
"BBBBBBBBBBBBBBBBo#@O8w000w0777XO+XBBBBBBBBBBBBBBBB",
"BBBBBBBBBBBBBBBBBBBX1>;1;;;11>.BBBBBBBBBBBBBBBBBBB",
"BBBBBBBBBBBBBBBBBBBBB.B.XX.B.BBBBBBBBBBBBBBBBBBBBB",
"BBBBBBBBBBBBBBBBBBBBBBBBBBBBBBBBBBBBBBBBBBBBBBBBBB",
"BBBBBBBBBBBBBBBBBBBBBBBBBBBBBBBBBBBBBBBBBBBBBBBBBB",
"BBBBBBBBBBBBBBBBBBBBBBBBBBBBBBBBBBBBBBBBBBBBBBBBBB",
"BBBBBBBBBBBBBBBBBBBBBBBBBBBBBBBBBBBBBBBBBBBBBBBBBB",
"BBBBBBBBBBBBBBBBBBBBBBBBBBBBBBBBBBBBBBBBBBBBBBBBBB",
"BBBBBBBBBBBBBBBBBBBBBBBBBBBBBBBBBBBBBBBBBBBBBBBBBB",
"BBBBBBBBBBBBBBBBBBBBBBBBBBBBBBBBBBBBBBBBBBBBBBBBBB"
};
