/* XPM */
static char *_3693_ee90d2a85605fc4015bef07e31fb09c8c520bd796b5bef8f76797a4e1e76f3d2[] = {
/* columns rows colors chars-per-pixel */
"50 50 202 2 ",
"   c black",
".  c #05070A",
"X  c #090306",
"o  c #12090C",
"O  c #130D1E",
"+  c #0F1118",
"@  c #260E0F",
"#  c #24181D",
"$  c #351315",
"%  c #230C10",
"&  c #141221",
"*  c #111B27",
"=  c #111D29",
"-  c #1F192A",
";  c #181B23",
":  c #0F1523",
">  c #231B2D",
",  c #201729",
"<  c #261D36",
"1  c #281E37",
"2  c #331822",
"3  c #0E252E",
"4  c #032A29",
"5  c #15232C",
"6  c #0C2D34",
"7  c #0C3137",
"8  c #0A343A",
"9  c #0A3A3E",
"0  c #063839",
"q  c #102430",
"w  c #232633",
"e  c #252B34",
"r  c #292D3B",
"t  c #2D2237",
"y  c #34263A",
"u  c #3C2B3D",
"i  c #372838",
"p  c #2C323B",
"a  c #38323F",
"s  c #491C23",
"d  c #422F3F",
"f  c #4A343B",
"g  c #533B3D",
"h  c #45232F",
"j  c #7B2C38",
"k  c #61232D",
"l  c #63483E",
"z  c #093E40",
"x  c #382A49",
"c  c #2C3944",
"v  c #313A43",
"b  c #3D3E46",
"n  c #353B4B",
"m  c #353743",
"M  c #363659",
"N  c #3F2A72",
"B  c #3D2676",
"V  c #4A3441",
"C  c #473546",
"Z  c #533B43",
"A  c #5A3D48",
"S  c #5F3F52",
"D  c #47304A",
"F  c #6E364D",
"G  c #472965",
"H  c #453D66",
"J  c #054D4C",
"K  c #0A554E",
"L  c #055552",
"P  c #025B56",
"I  c #005E59",
"U  c #144B4F",
"Y  c #254149",
"T  c #344546",
"R  c #344547",
"E  c #3D4654",
"W  c #01635C",
"Q  c #0B6C5D",
"!  c #056A5E",
"~  c #08705F",
"^  c #046E61",
"/  c #057766",
"(  c #5E4445",
")  c #424558",
"_  c #454D5C",
"`  c #444853",
"'  c #66444C",
"]  c #6C4A4B",
"[  c #67474C",
"{  c #724D4D",
"}  c #73474A",
"|  c #7C5A4E",
" . c #7B544E",
".. c #6E4954",
"X. c #654353",
"o. c #784F50",
"O. c #7D5353",
"+. c #715053",
"@. c #6C5554",
"#. c #414365",
"$. c #4B5264",
"%. c #4F5668",
"&. c #5A546B",
"*. c #525768",
"=. c #595D71",
"-. c #504378",
";. c #63667C",
":. c #973835",
">. c #833138",
",. c #A03B34",
"<. c #A93D48",
"1. c #9A3D65",
"2. c #825E4D",
"3. c #845854",
"4. c #8B5C55",
"5. c #855B58",
"6. c #925F59",
"7. c #91444F",
"8. c #BB4451",
"9. c #8D6256",
"0. c #94625A",
"q. c #9A665D",
"w. c #9D745C",
"e. c #A2695D",
"r. c #A3695D",
"t. c #AC725F",
"y. c #A0765C",
"u. c #A67262",
"i. c #A97763",
"p. c #B67C61",
"a. c #CA494C",
"s. c #E6544C",
"d. c #09846C",
"f. c #1A8664",
"g. c #149C74",
"h. c #0C8D70",
"j. c #16A478",
"k. c #2CA56E",
"l. c #2EAA6F",
"z. c #2EAC71",
"x. c #2FB274",
"c. c #27B77B",
"v. c #34B674",
"b. c #3EC376",
"n. c #39C67B",
"m. c #42CA78",
"M. c #B88668",
"N. c #B5947A",
"B. c #A9826C",
"V. c #C6885F",
"C. c #C18663",
"Z. c #C58A64",
"A. c #CA8E66",
"S. c #C68D69",
"D. c #C69067",
"F. c #CE9266",
"G. c #C8936B",
"H. c #D69B69",
"J. c #D89C68",
"K. c #D59867",
"L. c #CC9773",
"P. c #D29C73",
"I. c #DEA06A",
"U. c #D6A177",
"Y. c #E2AC79",
"T. c #472390",
"R. c #542F83",
"E. c #5139A5",
"W. c #6B6C82",
"Q. c #73728B",
"!. c #7D7A92",
"~. c #7A7790",
"^. c #6E7182",
"/. c #6449B1",
"(. c #6758B4",
"). c #745DC3",
"_. c #837E98",
"`. c #00A887",
"'. c #86819C",
"]. c #AE9582",
"[. c #9894A9",
"{. c #8E89AF",
"}. c #B0ABBB",
"|. c #D3A889",
" X c #D7B193",
".X c #E5B789",
"XX c #E4BD96",
"oX c #E1BFA0",
"OX c #EBC79D",
"+X c #EAC499",
"@X c #EECCA2",
"#X c #E5CAA7",
"$X c #F2D4AC",
"%X c #F5D1A5",
"&X c #EFD4B2",
"*X c #F0D6B2",
"=X c #F4DAB5",
"-X c #F5DEB9",
";X c #F6E1BB",
":X c #F9E1BB",
">X c #B6B1C0",
",X c None",
/* pixels */
",X,X,X,X,X,X,X,X,X,X,X,X,X,X,X,X,X,X,X,X,X,X,X,X,X,X,X,X,X,X,X,X,X,X,X,X,X,X,X,X,X,X,X,X,X,X,X,X,X,X",
",X,X,X,X,X,X,X,X,X,X,X,X,X,X,X,X,X,X,X,X,X,X,X,X,X,X,X,X,X,X,X,X,X,X,X,X,X,X,X,X,X,X,X,X,X,X,X,X,X,X",
",X,X,X,X,X,X,X,X,X,X,X,X,X,X,X,X,X,X,X,X,X,X,X,X,X,X,X,X,X,X,X,X,X,X,X,X,X,X,X,X,X,X,X,X,X,X,X,X,X,X",
",X,X,X,X,X,X,X,X,X,X,X,X,X,X,X,X,X,X,X,X,X,X,X,X,X,X,X,X,X,X,X,X,X,X,X,X,X,X,X,X,X,X,X,X,X,X,X,X,X,X",
",X,X,X,X,X,X,X,X,X,X,X,X,X,X,X,X,X,X,X,X,X,Xf | ] f ,X,X,X,X,X,X,X,X,X,X,X,X,X,X,X,X,X,X,X,X,X,X,X,X",
",X,X,X,X,X,X,X,X,X,X,X,X,X,X,X,X,X,X,X,Xa 9.].+XXXB.{ d ,X,X,X,X,X,X,X,X,X,X,X,X,X,X,X,X,X,X,X,X,X,X",
",X,X,X,X,X,X,X,X,X,X,X,X,X,X,X,X,X,X,Xi w.@X:X-X-X$XU.4.d ,X,X,X,X,X,X,X,X,X,X,X,X,X,X,X,X,X,X,X,X,X",
",X,X,X,X,X,X,X,X,X,X,X,X,X,X,X,X,X,Xi y.@X-X-X=X-X-X$XU.4.u ,X,X,X,X,X,X,X,X,X,X,X,X,X,X,X,X,X,X,X,X",
",X,X,X,X,X,X,X,X,X,X,X,X,X,X,X,X,Xy O.#X-X-X-X-X-X-X-X|.K.6.d ,X,X,X,X,X,X,X,X,X,X,X,X,X,X,X,X,X,X,X",
",X,X,X,X,X,X,X,X,X,X,X,X,X,X,X,X,Xt 4.P.$X*X$X*X&X.XC.A.J.F.6.u ,X,X,X,X,X,X,X,X,X,X,X,X,X,X,X,X,X,X",
",X,X,X,X,X,X,X,X,X,X,X,X,X,X,X,X,Xr A 9.M.G.K.A.i.i.Z.J.J.J.F.4.t 3 6 ,X,X,X,X,X,X,X,X,X,X,X,X,X,X,X",
",X,X,X,X,X,X,X,X,X,X,X,X,X,X,X,X,XK r V f ] t.M.H.H.H.J.J.J.A.4.y n L z ,X,X,X,X,X,X,X,X,X,X,X,X,X,X",
",X,X,X,X,X,X,X,X,X,X,X,X,X,X,Xg ( Z i 0.p.J.J.J.J.H.J.J.J.K.r.o.' 3.V f ,X,X,X,X,X,X,X,X,X,X,X,X,X,X",
",X,X,X,X,X,X,X,X,X,X,X,X,Xf @.N.Y.C.V o.Z.J.J.J.J.J.J.J.J.Z.{ d r.r.r.o.u ,X,X,X,X,X,X,X,X,X,X,X,X,X",
",X,X,X,X,X,X,X,X,X,X,X,XV i.%X$XL.C.{ y { C.A.I.I.I.I.A.C.{ i ] r.e.t.C.3.C ,X,X,X,X,X,X,X,X,X,X,X,X",
",X,X,X,X,X,X,X,X,X,X,X,X( .X;X.XZ.r.e.] y A [ | | | | ] A y } r.q.t.F.J.F.Z ,X,X,X,X,X,X,X,X,X,X,X,X",
",X,X,X,X,X,X,X,X,X,X,X,XV |.;X@X+XL.C.r.O.' < t < < t t '  .q.t.Z.F.J.J.Z.Z ,X,X,X,X,X,X,X,X,X,X,X,X",
",X,X,X,X,X,X,X,X,X,X,X,X,X+. X-X-X$X@XXXXX XB.N.N.N.].M. XL. XP.XXJ.J.Z.} ,X,X,X,X,X,X,X,X,X,X,X,X,X",
",X,X,X,X,X,X,X,X,X,X,X,X,X,Xo.L.@X-X-X-X-X-X$X=X$X$X=X$X-X$X-X+X.X.XZ.] w ,X,X,X,X,X,X,X,X,X,X,X,X,X",
",X,X,X,X,X,X,X,X,X,X,X,X,X,Xw m 5.u.G.#X*X*X*X*X*X=X=X$X&X&X#XG.e.5.m Y 8 ,X,X,X,X,X,X,X,X,X,X,X,X,X",
",X,X,X,X,X,X,X,X,X,X,X,X,X,X9 W c c C b 0.q.y.D.D.D.D.u.q.0.b b m Y W z ,X,X,X,X,X,X,X,X,X,X,X,X,X,X",
",X,X,X,X,X,X,X,X,X,X,X,X,X,Xz W W k.m.Q R T R R T R R R T c ! b.k.W W z ,X,X,X,X,X,X,X,X,X,X,X,X,X,X",
",X,X,X,X,X,X,X,X,X,X,X,X,X,X0 I P z.x.~ b.n.c.j.m.j.z.b.m.~ ! x.l.L I 0 ,X,X,X,X,X,X,X,X,X,X,X,X,X,X",
",X,X,X,X,X,X,X,X,X,X,X,X,X,X4 7 J z./ ! b.b.l.f.m.f.k.m.m.^ W ~ x.J 7 4 ,X,X,X,X,X,X,X,X,X,X,X,X,X,X",
",X,X,X,X,X,X,X,X,X,X,X,X,X,X,X* 7 f.K W c.n.g.d.c.h.g.n.c.^ P K f.7 * ,X,X,X,X,X,X,X,X,X,X,X,X,X,X,X",
",X,X,X,X,X,X,X,X,X,X,X,X,X,X,X= * L 6 P d.v./ / `.d.^ c.h.^ P 6 L * = ,X,X,X,X,X,X,X,X,X,X,X,X,X,X,X",
",X,X,X,X,X,X,X,X,X,X,X,X,X,X,X,X= 6 3 P ^ j.L J d.L J g./ W P q 7 = ,X,X,X,X,X,X,X,X,X,X,X,X,X,X,X,X",
",X,X,X,X,X,X,X,X,X,X,X,X,X,X,X,X,X,X= 6 9 W 6 8 ^ z 3 W z 6 6 = ,X,X,X,X,X,X,X,X,X,X,X,X,X,X,X,X,X,X",
",X,X,X,X,X,X,X,X,X,X,X,X,X,X,X,X,X,X,X. 3 J = q 6 q = J 3 . . ,X,X,X,X,X,X,X,X,X,X,X,X,X,X,X,X,X,X,X",
",X,X,X,X,X,X,X,X,X,X,X,X,X,X,X,X- > > , ; : N N N N N N : & - > > , ,X,X,X,X,X,X,X,X,X,X,X,X,X,X,X,X",
",X,X,X,X,X,X,X,X,X,X,X,X,X,X,XO &.'.!.~._ a X.X.S S S X.a _ ~.!._.&.O ,X,X,X,X,X,X,X,X,X,X,X,X,X,X,X",
",X,X,X,X,X,X,X,X,X,X,X,X,X,X,X,X&.=.$.$.r f 6.X.' ....6.f r $.$.=.&.,X,X,X,X,X,X,X,X,X,X,X,X,X,X,X,X",
",X,X,X,X,X,X,X,X,X,X,X,X,X,X,X,X,Xw r e i e.e.4.3.r.e.e.e.g e r w ,X,X,X,X,X,X,X,X,X,X,X,X,X,X,X,X,X",
",X,X,X,X,X,X,X,X,X,X,X,X,X,X,X,X,X< , i ' e.e.e.r.r.e.e.6.F.l , ,X,X,X,X,X,X,X,X,X,X,X,X,X,X,X,X,X,X",
",X,X,X,X,X,X,X,X,X,X,X,X,X,X,X,X,X& H A A e.e.e.e.e.e.e.A 2.| x ,X,X,X,X,X,X,X,X,X,X,X,X,X,X,X,X,X,X",
",X,X,X,X,X,X,X,X,X,X,X,X,X,X,X,X,Xs x & y 3.e.e.e.e.e.e.C -.-.1 ,X,X,X,X,X,X,X,X,X,X,X,X,X,X,X,X,X,X",
",X,X,X,X,X,X,X,X,X,X,X,X,X,X,X,X  :.>.h # 4.e.e.e.e.r.r.D _.x .   ,X,X,X,X,X,X,X,X,X,X,X,X,X,X,X,X,X",
",X,X,X,X,X,X,X,X,X,X,X,X,X,X,X,X  ,.8.2 x O.e.e.e.e.r.3.G x j >.k ,X,X,X,X,X,X,X,X,X,X,X,X,X,X,X,X,X",
",X,X,X,X,X,X,X,X,X,X,X,X,X,X,X,X,X@ % . G R.....X.....R.G o F a.:.  ,X,X,X,X,X,X,X,X,X,X,X,X,X,X,X,X",
",X,X,X,X,X,X,X,X,X,X,X,X,X,X,X,X,X,X,Xp n M )./.T.T./.E.M m # <.:.  ,X,X,X,X,X,X,X,X,X,X,X,X,X,X,X,X",
",X,X,X,X,X,X,X,X,X,X,X,X,X,X,X,X,X,Xv =.~.$.n ) ) ) ) n $.!.$.o o ,X,X,X,X,X,X,X,X,X,X,X,X,X,X,X,X,X",
",X,X,X,X,X,X,X,X,X,X,X,X,X,X,X,X,X,Xv !.~._ ` [.}.}.[.` _ ~._.v ,X,X,X,X,X,X,X,X,X,X,X,X,X,X,X,X,X,X",
",X,X,X,X,X,X,X,X,X,X,X,X,X,X,X,X,X,Xv !.%.n #.^.[.'.;.M v %.!.v ,X,X,X,X,X,X,X,X,X,X,X,X,X,X,X,X,X,X",
",X,X,X,X,X,X,X,X,X,X,X,X,X,X,X,X,X,Xv ^.%.#.(.$.Q.Q.$.B M %.^.v ,X,X,X,X,X,X,X,X,X,X,X,X,X,X,X,X,X,X",
",X,X,X,X,X,X,X,X,X,X,X,X,X,X,X,X,X,Xe E $.M E._ ;.;._ F C $.E e ,X,X,X,X,X,X,X,X,X,X,X,X,X,X,X,X,X,X",
",X,X,X,X,X,X,X,X,X,X,X,X,X,X,X,X,X,X,Xe ` 7.1.o.E ` c s , R e ,X,X,X,X,X,X,X,X,X,X,X,X,X,X,X,X,X,X,X",
",X,X,X,X,X,X,X,X,X,X,X,X,X,X,X,X,X,X,X,X# a.s.>.+ 5 ,X,X  ; ,X,X,X,X,X,X,X,X,X,X,X,X,X,X,X,X,X,X,X,X",
",X,X,X,X,X,X,X,X,X,X,X,X,X,X,X,X,X,X,X,XX $ $ @ ,X,X,X,X,X,X,X,X,X,X,X,X,X,X,X,X,X,X,X,X,X,X,X,X,X,X",
",X,X,X,X,X,X,X,X,X,X,X,X,X,X,X,X,X,X,X,X,X,X,X,X,X,X,X,X,X,X,X,X,X,X,X,X,X,X,X,X,X,X,X,X,X,X,X,X,X,X",
",X,X,X,X,X,X,X,X,X,X,X,X,X,X,X,X,X,X,X,X,X,X,X,X,X,X,X,X,X,X,X,X,X,X,X,X,X,X,X,X,X,X,X,X,X,X,X,X,X,X"
};
