/* XPM */
static char *_9296_0766a07f1d8b4205b3e164e6469271d6b97e629a6d1ab42a7b1906f6a66fe3a4[] = {
/* columns rows colors chars-per-pixel */
"50 50 207 2 ",
"   c black",
".  c #090306",
"X  c #12090C",
"o  c #0C0911",
"O  c #0D0D1B",
"+  c #090815",
"@  c #120C18",
"#  c #131117",
"$  c #0D1619",
"%  c #260E0F",
"&  c #24181D",
"*  c #351315",
"=  c #230C10",
"-  c #140D26",
";  c #180E2E",
":  c #170E2C",
">  c #111C2A",
",  c #1F1929",
"<  c #171425",
"1  c #1C1737",
"2  c #14162A",
"3  c #231C2E",
"4  c #211724",
"5  c #231936",
"6  c #281F37",
"7  c #241838",
"8  c #331822",
"9  c #012B29",
"0  c #1A222C",
"q  c #152232",
"w  c #1E2D3E",
"e  c #0A3A3E",
"r  c #053B3A",
"t  c #0D2D33",
"y  c #242434",
"u  c #252B34",
"i  c #2B2B36",
"p  c #2D2238",
"a  c #292E39",
"s  c #2B2436",
"d  c #3A2736",
"f  c #33263A",
"g  c #3B2C3D",
"h  c #362937",
"j  c #2C323B",
"k  c #491C23",
"l  c #402E3B",
"z  c #45323E",
"x  c #48333D",
"c  c #54383D",
"v  c #4C2836",
"b  c #7B2C38",
"n  c #743136",
"m  c #61232D",
"M  c #63483E",
"N  c #2C1E53",
"B  c #311F58",
"V  c #2B1C4D",
"C  c #1A2A44",
"Z  c #0A3A40",
"A  c #143E51",
"S  c #372C48",
"D  c #2E3748",
"F  c #313A43",
"G  c #353B4B",
"H  c #3A3544",
"J  c #362856",
"K  c #363659",
"L  c #2B2353",
"P  c #362464",
"I  c #382467",
"U  c #3C2672",
"Y  c #313A6E",
"T  c #443341",
"R  c #4C3543",
"E  c #483947",
"W  c #543B44",
"Q  c #593D46",
"!  c #4B3054",
"~  c #6E364D",
"^  c #472965",
"/  c #453E67",
"(  c #442D7C",
")  c #4A367A",
"_  c #4C3E7E",
"`  c #074647",
"'  c #035853",
"]  c #3D4555",
"[  c #2A4059",
"{  c #02635C",
"}  c #036960",
"|  c #5D4344",
" . c #5F4048",
".. c #5A494B",
"X. c #424658",
"o. c #444C5B",
"O. c #444853",
"+. c #4A424C",
"@. c #6A4C47",
"#. c #614048",
"$. c #6A464E",
"%. c #614047",
"&. c #72534B",
"*. c #6D4954",
"=. c #7D5355",
"-. c #73474A",
";. c #7C625B",
":. c #454963",
">. c #4B5264",
",. c #4F5668",
"<. c #5A546B",
"1. c #525768",
"2. c #55447A",
"3. c #595D71",
"4. c #4D4075",
"5. c #63667C",
"6. c #813436",
"7. c #973835",
"8. c #822E35",
"9. c #A03B34",
"0. c #BE463F",
"q. c #A73D45",
"w. c #9A3D65",
"e. c #825E4D",
"r. c #855A54",
"t. c #905E58",
"y. c #91444F",
"u. c #BE464D",
"i. c #BB4451",
"p. c #8D6254",
"a. c #8B665C",
"s. c #966159",
"d. c #986459",
"f. c #96715D",
"g. c #A2695D",
"h. c #AB7C5B",
"j. c #AB715F",
"k. c #A57863",
"l. c #BB7E61",
"z. c #CA494C",
"x. c #E6544C",
"c. c #018873",
"v. c #BB8262",
"b. c #B28262",
"n. c #A98871",
"m. c #C08763",
"M. c #CF9B6E",
"N. c #C6946C",
"B. c #D19C6F",
"V. c #D99B67",
"C. c #CB9877",
"Z. c #D39F71",
"A. c #DBA26F",
"S. c #DCA473",
"D. c #DFAB7A",
"F. c #DAA778",
"G. c #E3AF7E",
"H. c #452A83",
"J. c #473080",
"K. c #533987",
"L. c #472491",
"P. c #522D83",
"I. c #5139A5",
"U. c #56438B",
"Y. c #574D85",
"T. c #5C4799",
"R. c #5D5693",
"E. c #645499",
"W. c #604B9F",
"Q. c #6B6C82",
"!. c #73728B",
"~. c #7D7A92",
"^. c #7A7790",
"/. c #6E7182",
"(. c #6E5AAD",
"). c #6C5AA6",
"_. c #664BB3",
"`. c #725FB1",
"'. c #6758B4",
"]. c #7B6ABA",
"[. c #837E98",
"{. c #86819C",
"}. c #B99C83",
"|. c #9894A9",
" X c #8E89AF",
".X c #B0ABBB",
"XX c #C79B81",
"oX c #CDA185",
"OX c #DAB289",
"+X c #E9B887",
"@X c #E2B689",
"#X c #E9BA8A",
"$X c #E7BE93",
"%X c #EAC69B",
"&X c #F0CA9D",
"*X c #EDCCA3",
"=X c #F1CCA0",
"-X c #ECD0AC",
";X c #F2D3AB",
":X c #F4D2A6",
">X c #F4DBB6",
",X c #F5DDB9",
"<X c #F6E0BC",
"1X c #F9E1BC",
"2X c #9187C8",
"3X c #B6B1C0",
"4X c None",
/* pixels */
"4X4X4X4X4X4X4X4X4X4X4X4X4X4X4X4X4X4X4X4X4X4X4X4X4X4X4X4X4X4X4X4X4X4X4X4X4X4X4X4X4X4X4X4X4X4X4X4X4X4X",
"4X4X4X4X4X4X4X4X4X4X4X4X4X4X4X4X4X4X4X4X4X4X4X4X4X4X4X4X4X4X4X4X4X4X4X4X4X4X4X4X4X4X4X4X4X4X4X4X4X4X",
"4X4X4X4X4X4X4X4X4X4X4X4X4X4X4X4X4X4X4X4X4X4X4X4X4X4X4X4X4X4X4X4X4X4X4X4X4X4X4X4X4X4X4X4X4X4X4X4X4X4X",
"4X4X4X4X4X4X4X4X4X4X4X4X4X4X4X4X4X4X4X4X4X4X4X4X4X| @.@.@.@.4X4X4X4X4X4X4X4X4X4X4X4X4X4X4X4X4X4X4X4X",
"4X4X4X4X4X4X4X4X4X4X4X4X4X4X4X4X4X4X4X4X4X4X4Xc ;.}.#X#X#X@Xe.&.4X4X4X4X4X4X4X4X4X4X4X4X4X4X4X4X4X4X",
"4X4X4X4X4X4X4X4X4X4X4X4X4X4X4X4X4X4X4X4X4Xx a.}.:X1X1X,X<X,X&XOXp.&.4X4X4X4X4X4X4X4X4X4X4X4X4X4X4X4X",
"4X4X4X4X4X4X4X4X4X4X4X4X4X4X4X4X4X4X4X4Xg k.:X1X,X,X>X,X,X@XXX@XV.r.6 4X4X4X4X4X4X4X4X4X4X4X4X4X4X4X",
"4X4X4X4X4X4X4X4X4X4X4X4X4X4X4X4X4X4X4Xg k.:X,X,X,X,X>X,X>XV.d.| Q R 4X4X4X4X4X4X4X4X4X4X4X4X4X4X4X4X",
"4X4X4X4X4X4X4X4X4X4X4X4X4X4X4X4X4X4X4Xl Z.>X,X>X,X,X>X,X>X*Xv.f 4X4X4X4X4X4X4X4X4X4X4X4X4X4X4X4X4X4X",
"4X4X4X4X4X4X4X4X4X4X4X4X4X4X4X4X4X4Xf b.*X>X>X,X>X>X,X,X>X-XN.f 4X4X4X4X4X4X4X4X4X4X4X4X4X4X4X4X4X4X",
"4X4X4X4X4X4X4X4X4X4X4X4X4X4X4X4X> s f s.S.;X,X,X,X,X,X,X;XF.p.f p 4X4X4X4X4X4X4X4X4X4X4X4X4X4X4X4X4X",
"4X4X4X4X4X4X4X4X4X4X4X4X4X4X> h W T f g k.N.;X;X:X;X:X*XN.h.g f R W x 4X4X4X4X4X4X4X4X4X4X4X4X4X4X4X",
"4X4X4X4X4X4X4X4X4X4X4X4X4Xx ..n.S.l. .p 6 T h.h.h.h.h.t.S 6 p %.v.S.n...x 4X4X4X4X4X4X4X4X4X4X4X4X4X",
"4X4X4X4X4X4X4X4X4X4X4X4Xx f.=X;XD.V.v.#.Q R 6 6 5 6 6 s R Q %.j.V.D.;X=Xf.x 4X4X4X4X4X4X4X4X4X4X4X4X",
"4X4X4X4X4X4X4X4X4X4X4X4X| +X<X@XD.S.V.v.l.s.#.#.| %.~ %.d.l.v.m.S.D.@X<X+X| 4X4X4X4X4X4X4X4X4X4X4X4X",
"4X4X4X4X4X4X4X4X4X4X4X4X| +X<X*X;X%X#X%X$XoXN.C.C.C.XXN.oXA.@XA.%X;X*X<X+X| 4X4X4X4X4X4X4X4X4X4X4X4X",
"4X4X4X4X4X4X4X4X4X4X4X4Xx f.&X<X<X,X,X<X,X>X*X;X;X;X;X*X>X*X>X&X>X,X<X&Xf.x 4X4X4X4X4X4X4X4X4X4X4X4X",
"4X4X4X4X4X4X4X4X4X4X4X4X4Xz f.G.*X>X>X>X>X>X>X,X,X>X>X>X>X,X>X,X>X*X@Xf.g 4X4X4X4X4X4X4X4X4X4X4X4X4X",
"4X4X4X4X4X4X4X4X4X4X4X4X4X4Xi R a.F.F.-X>X>X>X>X>X>X>X>X>X>X-XF.Z.a.x i 4X4X4X4X4X4X4X4X4X4X4X4X4X4X",
"4X4X4X4X4X4X4X4X4X4X4X4X4X4Xe Z y H T E k.B.B.B.M.M.M.M.N.k.+.T T i e r 4X4X4X4X4X4X4X4X4X4X4X4X4X4X",
"4X4X4X4X4X4X4X4X4X4X4X4X4X4X9 Z ` c.{ t S g g l W g H S E G ' c.{ ` ` 9 4X4X4X4X4X4X4X4X4X4X4X4X4X4X",
"4X4X4X4X4X4X4X4X4X4X4X4X4X4XO q ` c.{ w Y.0 q v 0...' Y T.R.C ' { ` 0 o 4X4X4X4X4X4X4X4X4X4X4X4X4X4X",
"4X4X4X4X4X4X4X4X4X4X4X4X4X4X7 L > ' t f h d J I 5 5 A D h h S C ' ` q O 4X4X4X4X4X4X4X4X4X4X4X4X4X4X",
"4X4X4X4X4X4X4X4X4X4X4X4X4X4X: N < r C , u.q.5 H.H.H.H.5 q.z.3 ( K A N ; 4X4X4X4X4X4X4X4X4X4X4X4X4X4X",
"4X4X4X4X4X4X4X4X4X4X4X4X4X4X4X; O 1 U.J b n B U N N U B n b J W.K.- 2 4X4X4X4X4X4X4X4X4X4X4X4X4X4X4X",
"4X4X4X4X4X4X4X4X4X4X4X4X4X4X4X4X4X1 K.W.N J T.B # # B K.P N T.U.; 4X4X4X4X4X4X4X4X4X4X4X4X4X4X4X4X4X",
"4X4X4X4X4X4X4X4X4X4X4X4X4X4X4X4X4X  P 2X(.(.].W.Y.Y.E.].(.(.2XI   4X4X4X4X4X4X4X4X4X4X4X4X4X4X4X4X4X",
"4X4X4X4X4X4X4X4X4X4X4X4X4X4X4X4X4X4X- U.T.].`.) S S ) ].].T.U.- 4X4X4X4X4X4X4X4X4X4X4X4X4X4X4X4X4X4X",
"4X4X4X4X4X4X4X4X4X4X4X4X4X4X4X4X4X4X4X+ - ) 2.).E.E.).2.) - + 4X4X4X4X4X4X4X4X4X4X4X4X4X4X4X4X4X4X4X",
"4X4X4X4X4X4X4X4X4X4X4X4X4X4X4X4X, 5 3 , < o : ) ) ( ) : o < , 3 3 3 4X4X4X4X4X4X4X4X4X4X4X4X4X4X4X4X",
"4X4X4X4X4X4X4X4X4X4X4X4X4X4X4X@ <.[.~.^.>.u 4 @ @ X o 4 u >.^.~.[.<.@ 4X4X4X4X4X4X4X4X4X4X4X4X4X4X4X",
"4X4X4X4X4X4X4X4X4X4X4X4X4X4X4X4X<.3.>.>.j v t.$.$.$.$.t.x a >.>.3.<.4X4X4X4X4X4X4X4X4X4X4X4X4X4X4X4X",
"4X4X4X4X4X4X4X4X4X4X4X4X4X4X4X4X4Xy a u d g.g.g.g.g.g.g.d.c a a u 4X4X4X4X4X4X4X4X4X4X4X4X4X4X4X4X4X",
"4X4X4X4X4X4X4X4X4X4X4X4X4X4X4X4X4X3 4 f $.g.g.g.g.g.g.g.p.V.M 3 4X4X4X4X4X4X4X4X4X4X4X4X4X4X4X4X4X4X",
"4X4X4X4X4X4X4X4X4X4X4X4X4X4X4X4X4X# / E W g.g.g.g.g.g.g...=.=.f 4X4X4X4X4X4X4X4X4X4X4X4X4X4X4X4X4X4X",
"4X4X4X4X4X4X4X4X4X4X4X4X4X4X4X4X4Xk ! < f r.g.g.g.g.g.g.T 4.2.s 4X4X4X4X4X4X4X4X4X4X4X4X4X4X4X4X4X4X",
"4X4X4X4X4X4X4X4X4X4X4X4X4X4X4X4X  7.8.v # t.g.g.g.g.g.g.! [.S +   4X4X4X4X4X4X4X4X4X4X4X4X4X4X4X4X4X",
"4X4X4X4X4X4X4X4X4X4X4X4X4X4X4X4X  9.i.8 S =.g.g.g.g.g.r.^ S b 8.m 4X4X4X4X4X4X4X4X4X4X4X4X4X4X4X4X4X",
"4X4X4X4X4X4X4X4X4X4X4X4X4X4X4X4X4X% % . ^ P.*.*.*.*.*.P.^ @ ~ i.7.  4X4X4X4X4X4X4X4X4X4X4X4X4X4X4X4X",
"4X4X4X4X4X4X4X4X4X4X4X4X4X4X4X4X4X4X4Xj G / _.L.L.L._.I.K j * q.7.  4X4X4X4X4X4X4X4X4X4X4X4X4X4X4X4X",
"4X4X4X4X4X4X4X4X4X4X4X4X4X4X4X4X4X4XF 3.^.>.G ] X.O.X.G >.^.1.X X 4X4X4X4X4X4X4X4X4X4X4X4X4X4X4X4X4X",
"4X4X4X4X4X4X4X4X4X4X4X4X4X4X4X4X4X4XF ~.^.o.] |..X.X XO.o.^.{.F 4X4X4X4X4X4X4X4X4X4X4X4X4X4X4X4X4X4X",
"4X4X4X4X4X4X4X4X4X4X4X4X4X4X4X4X4X4XF ~.,.G / /.|.{.5.K F 1.^.j 4X4X4X4X4X4X4X4X4X4X4X4X4X4X4X4X4X4X",
"4X4X4X4X4X4X4X4X4X4X4X4X4X4X4X4X4X4XF Q.,.:.'.>.!.^.,.U G ,.5.] 4X4X4X4X4X4X4X4X4X4X4X4X4X4X4X4X4X4X",
"4X4X4X4X4X4X4X4X4X4X4X4X4X4X4X4X4X4Xu ] >.] I.o.5.5.o.~ E ,.] u 4X4X4X4X4X4X4X4X4X4X4X4X4X4X4X4X4X4X",
"4X4X4X4X4X4X4X4X4X4X4X4X4X4X4X4X4X4X4Xu O.y.w.-.] ] F k # ] u 4X4X4X4X4X4X4X4X4X4X4X4X4X4X4X4X4X4X4X",
"4X4X4X4X4X4X4X4X4X4X4X4X4X4X4X4X4X4X4X4X& z.x.6.$ 0 4X4X  < 4X4X4X4X4X4X4X4X4X4X4X4X4X4X4X4X4X4X4X4X",
"4X4X4X4X4X4X4X4X4X4X4X4X4X4X4X4X4X4X4X4X. * * % 4X4X4X4X4X4X4X4X4X4X4X4X4X4X4X4X4X4X4X4X4X4X4X4X4X4X",
"4X4X4X4X4X4X4X4X4X4X4X4X4X4X4X4X4X4X4X4X4X4X4X4X4X4X4X4X4X4X4X4X4X4X4X4X4X4X4X4X4X4X4X4X4X4X4X4X4X4X",
"4X4X4X4X4X4X4X4X4X4X4X4X4X4X4X4X4X4X4X4X4X4X4X4X4X4X4X4X4X4X4X4X4X4X4X4X4X4X4X4X4X4X4X4X4X4X4X4X4X4X"
};
