/* XPM */
static char *_9202_9001f5bfdb9fc02196ec46f9a44b1b7fb25b24905c7cb25f3a6fb35f32d30e7a[] = {
/* columns rows colors chars-per-pixel */
"55 55 29 1 ",
"  c black",
". c #010101",
"X c #020202",
"o c #030202",
"O c #18141F",
"+ c #191324",
"@ c #101E29",
"# c #2F2339",
"$ c #2E3740",
"% c #453153",
"& c #6C3B4F",
"* c #43297F",
"= c #00635C",
"- c #61414E",
"; c #50576B",
": c #AD3E50",
"> c #A2695D",
", c #E1534A",
"< c #D89C68",
"1 c #4820A4",
"2 c #7C6BBB",
"3 c #7D64DF",
"4 c #00A383",
"5 c #8D87A2",
"6 c gray74",
"7 c #F4DCB7",
"8 c #BCB7C5",
"9 c #AEADDC",
"0 c None",
/* pixels */
"0000000000000000000000000000000000000000000000000000000",
"0000000000000000000000000000000000000000000000000000000",
"000000000000000000000####000000000000000000000000000000",
"0000000000000000000##<77<##0000000000000000000000000000",
"000000000000000000#<7777777##00000000000000000000000000",
"00000000000000000#>7777777777##000000000000000000000000",
"00000000000000000#77<777777777<##0000000000000000000000",
"0000000000000000#>77>7777777777<>#000000000000000000000",
"0000000000000000#>7<>7777777777<>#@00000000000000000000",
"0000000000000000#<>#>7777777777<>#######000000000000000",
"0000000000000000#>##><777777777<##><<<<<#00000000000000",
"00000000000000000###><77777777<###><<77<<#0000000000000",
"00000000000000000###><77777777<###><7777<#0000000000000",
"000000000000000000=##><77777<>###><<<777<#0000000000000",
"00000000000000000@#>##><<<>####><<7<7777>#0000000000000",
"00000000000000000@#>>########><<7<7777<>#00000000000000",
"00000000000000000#><<>>###><<77<7777<>##000000000000000",
"0000000000000000#>7<7<<<<777<77777<>##==000000000000000",
"000000000000000#><77777<777777<#####4==0000000000000000",
"000000000000000#>><777777<#####@@==@==@0000000000000000",
"0000000000000000##>>>>####===2222=@@=@.0000000000000000",
"000000000000000000####=4==@=***%@@%*OO00000000000000000",
"000000000000000000X@@@@===@22**@::O**.00000000000000000",
"0000000000000000000@@=@%=@%222*@,,O**.00000000000000000",
"0000000000000000000X@=@%O@22222*OO**OO00000000000000000",
"00000000000000000000o@=%OO222222**2*OO00000000000000000",
"000000000000000000000o@@*222222222229 00000000000000000",
"0000000000000000000000X@ **922222*OO 000000000000000000",
"000000000000000000000000#o****2222*.0000000000000000000",
"000000000000000000000000#-X%%**** X00000000000000000000",
"000000000000000000000+++++++***. 0000000000000000000000",
"000000000000000000000+5555;$+---#0000000000000000000000",
"000000000000000000000+5;;;$+>>>>-#000000000000000000000",
"0000000000000000000000+$$$+>>>>>>#000000000000000000000",
"0000000000000000000000#+++->>>>>>#000000000000000000000",
"0000000000000000000000#<>>#->>>>>#000000000000000000000",
"0000000000000000000000#<<<#->>>>># 00000000000000000000",
"0000000000000000000000#####->>>>>#, 0000000000000000000",
"000000000000000000000 222 ->>>>>>#:, 000000000000000000",
"000000000000000000000     ->>>>>-#&: 000000000000000000",
"000000000000000000000 &: --------#  0000000000000000000",
"000000000000000000000 :, ;$$$$$$$$000000000000000000000",
"0000000000000000000000  $$;;5$5688000000000000000000000",
"0000000000000000000000$;$;55;$;585000000000000000000000",
"0000000000000000000000$;$;55;$;;85000000000000000000000",
"0000000000000000000000$$$55;$3$;;8500000000000000000000",
"0000000000000000000000 :$5;;$31$;;$00000000000000000000",
"0000000000000000000000 ::$$$ 11:$$ 00000000000000000000",
"0000000000000000000000 ::: 00  :, 000000000000000000000",
"00000000000000000000000   00000  0000000000000000000000",
"0000000000000000000000000000000000000000000000000000000",
"0000000000000000000000000000000000000000000000000000000",
"0000000000000000000000000000000000000000000000000000000",
"0000000000000000000000000000000000000000000000000000000",
"0000000000000000000000000000000000000000000000000000000"
};
