/* XPM */
static char *_1239_05939ff7957e4adb47e52e2a016bf687f46724e572bd9a58d5a470e9d47c26b9[] = {
/* columns rows colors chars-per-pixel */
"50 50 199 2 ",
"   c #010101",
".  c #0A0507",
"X  c #110506",
"o  c #0C0D13",
"O  c #10091F",
"+  c #0B131A",
"@  c #15121D",
"#  c #17171B",
"$  c #240F12",
"%  c #37181D",
"&  c #28161E",
"*  c #0D1B23",
"=  c #1A1422",
"-  c #131D2A",
";  c #161B29",
":  c #1C1534",
">  c #251C2B",
",  c #241C34",
"<  c #2D1D3B",
"1  c #281C37",
"2  c #18262E",
"3  c #0E2C34",
"4  c #1A2835",
"5  c #113139",
"6  c #0F373E",
"7  c #28222C",
"8  c #33222E",
"9  c #262434",
"0  c #2C2335",
"q  c #2C2339",
"w  c #272A36",
"e  c #35263A",
"r  c #35283B",
"t  c #3C2B3D",
"y  c #322537",
"u  c #2D343F",
"i  c #30323A",
"p  c #491C1A",
"a  c #5E231F",
"s  c #63231F",
"d  c #511D26",
"f  c #5F212B",
"g  c #422D3E",
"h  c #452F37",
"j  c #4E383F",
"k  c #573B3E",
"l  c #5A2A37",
"z  c #63242B",
"x  c #674135",
"c  c #2C1D4C",
"v  c #261745",
"b  c #2F1D57",
"n  c #0A3E40",
"m  c #2A2747",
"M  c #39294C",
"N  c #323A45",
"B  c #363E4A",
"V  c #393844",
"C  c #342958",
"Z  c #3A3954",
"A  c #372567",
"S  c #4C3341",
"D  c #473943",
"F  c #553B44",
"G  c #583D45",
"H  c #563948",
"J  c #603F46",
"K  c #713C49",
"L  c #513B60",
"P  c #422979",
"I  c #473166",
"U  c #0B464B",
"Y  c #084748",
"T  c #04514E",
"R  c #045251",
"E  c #085856",
"W  c #384148",
"Q  c #3D4454",
"!  c #00665E",
"~  c #0D5D60",
"^  c #205171",
"/  c #3C557C",
"(  c #076D63",
")  c #5C4144",
"_  c #5F404D",
"`  c #54464F",
"'  c #454C5C",
"]  c #464B5A",
"[  c #5A4D56",
"{  c #49454B",
"}  c #644445",
"|  c #6D4A4B",
" . c #674849",
".. c #744D4C",
"X. c #7B544D",
"o. c #79574D",
"O. c #6A4650",
"+. c #6B4A51",
"@. c #764E51",
"#. c #64555B",
"$. c #6F5050",
"%. c #795657",
"&. c #6C504A",
"*. c #4F4F64",
"=. c #495162",
"-. c #545B6F",
";. c #4F4475",
":. c #534877",
">. c #5A5D72",
",. c #766466",
"<. c #66687E",
"1. c #983E3D",
"2. c #AF433F",
"3. c #933948",
"4. c #8F3E51",
"5. c #8C3844",
"6. c #A43C47",
"7. c #835654",
"8. c #895A54",
"9. c #925E53",
"0. c #B74546",
"q. c #B14451",
"w. c #8D6A59",
"e. c #9C665C",
"r. c #976757",
"t. c #9D7156",
"y. c #A36A5D",
"u. c #AB725E",
"i. c #A3705B",
"p. c #90507A",
"a. c #89726B",
"s. c #AD7B6B",
"d. c #A47D6E",
"f. c #B57B63",
"g. c #A57E72",
"h. c #C54C4E",
"j. c #03836F",
"k. c #BE8261",
"l. c #BB9379",
"z. c #B3896D",
"x. c #C38C63",
"c. c #C68D6B",
"v. c #C99269",
"b. c #D69B6A",
"n. c #C89A78",
"m. c #D39C71",
"M. c #DCA473",
"N. c #DAA87A",
"B. c #E0AA78",
"V. c #E4B17F",
"C. c #4B3387",
"Z. c #50378E",
"A. c #442A81",
"S. c #5F499D",
"D. c #5A4496",
"F. c #635A9A",
"G. c #604D86",
"H. c #6A6B82",
"J. c #746E87",
"K. c #79768F",
"L. c #74718A",
"P. c #7E7B92",
"I. c #644FA3",
"U. c #6956A2",
"Y. c #725FB0",
"T. c #7D6CBC",
"R. c #7866B5",
"E. c #827B85",
"W. c #8372C8",
"Q. c #BE9F8A",
"!. c #A99182",
"~. c #8D87A2",
"^. c #9A97AB",
"/. c #918AA6",
"(. c #A09EAB",
"). c #B0ABBC",
"_. c #D0A781",
"`. c #CFB99F",
"'. c #DAB798",
"]. c #CDAE96",
"[. c #E5B78A",
"{. c #E7BD93",
"}. c #E9C295",
"|. c #EBC59A",
" X c #EFCA9F",
".X c #E5C5A4",
"XX c #EECDA3",
"oX c #EDCEA9",
"OX c #F1CDA2",
"+X c #EFD1AC",
"@X c #F2D4AC",
"#X c #F5D8AF",
"$X c #F4DCB6",
"%X c #F5DEB9",
"&X c #F6D9B1",
"*X c #F7E1BC",
"=X c #FBE3BC",
"-X c #8D81C7",
";X c None",
/* pixels */
";X;X;X;X;X;X;X;X;X;X;X;X;X;X;X;X;X;X;X;X;X;X;X;X;X;X;X;X;X;X;X;X;X;X;X;X;X;X;X;X;X;X;X;X;X;X;X;X;X;X",
";X;X;X;X;X;X;X;X;X;X;X;X;X;X;X;X;X;X;X;X;X;X;X;X;X;X;X;X;X;X;X;X;X;X;X;X;X;X;X;X;X;X;X;X;X;X;X;X;X;X",
";X;X;X;X;X;X;X;X;X;X;X;X;X;X;X;X;X;X;X;X;X;X;X;X;X;X;X;X) #.#.) ;X;X;X;X;X;X;X;X;X;X;X;X;X;X;X;X;X;X",
";X;X;X;X;X;X;X;X;X;X;X;X;X;X;X;X;X;X;X;X;X;X;X;X;X;X#.,.N.&X$X_.,._ ;X;X;X;X;X;X;X;X;X;X;X;X;X;X;X;X",
";X;X;X;X;X;X;X;X;X;X;X;X;X;X;X;X;X;X;X;X;X;X;X;X#.a.`.=X%X$X$X*X&Xl.j ;X;X;X;X;X;X;X;X;X;X;X;X;X;X;X",
";X;X;X;X;X;X;X;X;X;X;X;X;X;X;X;X;X;X;X;X;X, S w.].=X*X$X$X$X%X+X|.@X8.;X;X;X;X;X;X;X;X;X;X;X;X;X;X;X",
";X;X;X;X;X;X;X;X;X;X;X;X;X;X;X;X;X;X;X;Xt X.z.@X*X%X$X$X$X$X%X.Xn.%XQ.F ;X;X;X;X;X;X;X;X;X;X;X;X;X;X",
";X;X;X;X;X;X;X;X;X;X;X;X;X;X;X;X;X;X;X2 t u.V.$X%X%X$X$X$X$X%X.Xf.}.].J ;X;X;X;X;X;X;X;X;X;X;X;X;X;X",
";X;X;X;X;X;X;X;X;X;X;X;X;X;X;Xr r r r 0 t i.N.*X%X$X%X%X%X%X%X.X8...c.$.;X;X;X;X;X;X;X;X;X;X;X;X;X;X",
";X;X;X;X;X;X;X;X;X;X;X;X;X;Xo.v.v.x.k.r.r k N.$X$X$X$X$X$X$X@Xn.7.q |  .;X;X;X;X;X;X;X;X;X;X;X;X;X;X",
";X;X;X;X;X;X;X;X;X;X;X;X;X| b.}.$X[.b.y.r q  .[.%X%X%X$X$X$X@Xv.7.q r ;X;X;X;X;X;X;X;X;X;X;X;X;X;X;X",
";X;X;X;X;X;X;X;X;X;X;X;X;X| {.%X$XXXM.i.S q F n..X$X%X%X$X*XXXx.@.w m ;X;X;X;X;X;X;X;X;X;X;X;X;X;X;X",
";X;X;X;X;X;X;X;X;X;X;X;X;X} [.%X*X[.b.N.u.) g S r.l.'. XOX Xx...r B U ;X;X;X;X;X;X;X;X;X;X;X;X;X;X;X",
";X;X;X;X;X;X;X;X;X;X;X;X;XS d.}.@X*X}.@XM.N.i. .t , H r.t.t.| y +.X.; ;X;X;X;X;X;X;X;X;X;X;X;X;X;X;X",
";X;X;X;X;X;X;X;X;X;X;X;X;X;XS 7.l.{.$X$X}.oXM.[.d.X.} y , 1 H $.k.e.t ;X;X;X;X;X;X;X;X;X;X;X;X;X;X;X",
";X;X;X;X;X;X;X;X;X;X;X;X;X;X;XU D o.l.[.=X&XXX*X{.V.'.!.w.w.x.v.[.m.z.S ;X;X;X;X;X;X;X;X;X;X;X;X;X;X",
";X;X;X;X;X;X;X;X;X;X;X;X;X;X;X! E ( {  .,.,.a. X@X@X=X=X XB.}.OX#X@X{.r.S ;X;X;X;X;X;X;X;X;X;X;X;X;X",
";X;X;X;X;X;X;X;X;X;X;X;X;X;X;X3 T ( 5 U Y 2 w +.#.#.#.l.@XOX$X*X%XXXv.f.H ;X;X;X;X;X;X;X;X;X;X;X;X;X",
";X;X;X;X;X;X;X;X;X;X;X;X;X;X;X. * T 3 3 ~ F.F.U./ R R W ` [ [ s.s.s.X.g ;X;X;X;X;X;X;X;X;X;X;X;X;X;X",
";X;X;X;X;X;X;X;X;X;X;X;X;X;X;X;X@ 2 A M 4 m I C.C.^ n T E j.T t t t e ;X;X;X;X;X;X;X;X;X;X;X;X;X;X;X",
";X;X;X;X;X;X;X;X;X;X;X;X;X;X;X;X  b C.1 6.5.v A.S.T.Z Y ! E 3 3 - * ;X;X;X;X;X;X;X;X;X;X;X;X;X;X;X;X",
";X;X;X;X;X;X;X;X;X;X;X;X;X;X;X;X  c A < 2.3.m S.T.T.G.w Y B 2 T * * ;X;X;X;X;X;X;X;X;X;X;X;X;X;X;X;X",
";X;X;X;X;X;X;X;X;X;X;X;X;X;X;X;X= = A C.1 c S.T.T.T.W.m = M n n + ;X;X;X;X;X;X;X;X;X;X;X;X;X;X;X;X;X",
";X;X;X;X;X;X;X;X;X;X;X;X;X;X;X;Xo D D.T.S.S.T.T.T.T.T.;.m m n + ;X;X;X;X;X;X;X;X;X;X;X;X;X;X;X;X;X;X",
";X;X;X;X;X;X;X;X;X;X;X;X;X;X;X;X;X*.:.;.I.T.T.T.T.-XR.I.C - o ;X;X;X;X;X;X;X;X;X;X;X;X;X;X;X;X;X;X;X",
";X;X;X;X;X;X;X;X;X;X;X;X;X;X;X;X;X;X. c I.T.T.R.D.U.Z.v = * ;X;X;X;X;X;X;X;X;X;X;X;X;X;X;X;X;X;X;X;X",
";X;X;X;X;X;X;X;X;X;X;X;X;X;X;X;X;X;X;X: M D.Z.Z.A I 1 8 r ;X;X;X;X;X;X;X;X;X;X;X;X;X;X;X;X;X;X;X;X;X",
";X;X;X;X;X;X;X;X;X;X;X;X;X;X;X;X;X;X;X;X;XO 1 A m , O > , = ;X;X;X;X;X;X;X;X;X;X;X;X;X;X;X;X;X;X;X;X",
";X;X;X;X;X;X;X;X;X;X;X;X;X;X;X;X;X;X;X;X;X0 h 1 B >.L.J.J.> ;X;X;X;X;X;X;X;X;X;X;X;X;X;X;X;X;X;X;X;X",
";X;X;X;X;X;X;X;X;X;X;X;X;X;X;X;X;X;X;X;Xr O.e.} 9 ] >.>.K.q ;X;X;X;X;X;X;X;X;X;X;X;X;X;X;X;X;X;X;X;X",
";X;X;X;X;X;X;X;X;X;X;X;X;X;X;X;X;X;X;X;Xg e.y.e.} w N u q q ;X;X;X;X;X;X;X;X;X;X;X;X;X;X;X;X;X;X;X;X",
";X;X;X;X;X;X;X;X;X;X;X;X;X;X;X;X;X;X;X;Xt e.7...y.| > > F r ;X;X;X;X;X;X;X;X;X;X;X;X;X;X;X;X;X;X;X;X",
";X;X;X;X;X;X;X;X;X;X;X;X;X;X;X;X;X;X;X;Xg e.) ) f.v.&.7.O.e ;X;X;X;X;X;X;X;X;X;X;X;X;X;X;X;X;X;X;X;X",
";X;X;X;X;X;X;X;X;X;X;X;X;X;X;X;X;X;X;X;Xt y.7.k t.i.F | O.y p ;X;X;X;X;X;X;X;X;X;X;X;X;X;X;X;X;X;X;X",
";X;X;X;X;X;X;X;X;X;X;X;X;X;X;X;X;X;X;X;Xt 9.G ;.:.m h } J S 0.a ;X;X;X;X;X;X;X;X;X;X;X;X;X;X;X;X;X;X",
";X;X;X;X;X;X;X;X;X;X;X;X;X;X;X;X;X;X;X;Xt J : W.W.M k %.J e 4.6.  ;X;X;X;X;X;X;X;X;X;X;X;X;X;X;X;X;X",
";X;X;X;X;X;X;X;X;X;X;X;X;X;X;X;X;X;X;X;X0 % 3.p.L e  .O.G t & % ;X;X;X;X;X;X;X;X;X;X;X;X;X;X;X;X;X;X",
";X;X;X;X;X;X;X;X;X;X;X;X;X;X;X;X;X;X;X;Xw $ q.l # i V V ] N ;X;X;X;X;X;X;X;X;X;X;X;X;X;X;X;X;X;X;X;X",
";X;X;X;X;X;X;X;X;X;X;X;X;X;X;X;X;X;X;X;X(.E.$ @ [ P.K.K.] ' N ;X;X;X;X;X;X;X;X;X;X;X;X;X;X;X;X;X;X;X",
";X;X;X;X;X;X;X;X;X;X;X;X;X;X;X;X;X;X;X;X^.).<.Q Q K./.H.B *.N ;X;X;X;X;X;X;X;X;X;X;X;X;X;X;X;X;X;X;X",
";X;X;X;X;X;X;X;X;X;X;X;X;X;X;X;X;X;X;X;X^.^.-.] Q H.~.<.W ' N ;X;X;X;X;X;X;X;X;X;X;X;X;X;X;X;X;X;X;X",
";X;X;X;X;X;X;X;X;X;X;X;X;X;X;X;X;X;X;XP.^.-.] C A Q L.~.] D w ;X;X;X;X;X;X;X;X;X;X;X;X;X;X;X;X;X;X;X",
";X;X;X;X;X;X;X;X;X;X;X;X;X;X;X;X;X;X;Xw ] ' H c ; W =.<. .0.X ;X;X;X;X;X;X;X;X;X;X;X;X;X;X;X;X;X;X;X",
";X;X;X;X;X;X;X;X;X;X;X;X;X;X;X;X;X;X;X  7 K 4.< = # 9 k h.6.. ;X;X;X;X;X;X;X;X;X;X;X;X;X;X;X;X;X;X;X",
";X;X;X;X;X;X;X;X;X;X;X;X;X;X;X;X;X;X;X;XX f p   ;X;X  s z f . ;X;X;X;X;X;X;X;X;X;X;X;X;X;X;X;X;X;X;X",
";X;X;X;X;X;X;X;X;X;X;X;X;X;X;X;X;X;X;X;X;X    ;X;X;X;X      ;X;X;X;X;X;X;X;X;X;X;X;X;X;X;X;X;X;X;X;X",
";X;X;X;X;X;X;X;X;X;X;X;X;X;X;X;X;X;X;X;X;X;X;X;X;X;X;X;X;X;X;X;X;X;X;X;X;X;X;X;X;X;X;X;X;X;X;X;X;X;X",
";X;X;X;X;X;X;X;X;X;X;X;X;X;X;X;X;X;X;X;X;X;X;X;X;X;X;X;X;X;X;X;X;X;X;X;X;X;X;X;X;X;X;X;X;X;X;X;X;X;X",
";X;X;X;X;X;X;X;X;X;X;X;X;X;X;X;X;X;X;X;X;X;X;X;X;X;X;X;X;X;X;X;X;X;X;X;X;X;X;X;X;X;X;X;X;X;X;X;X;X;X",
";X;X;X;X;X;X;X;X;X;X;X;X;X;X;X;X;X;X;X;X;X;X;X;X;X;X;X;X;X;X;X;X;X;X;X;X;X;X;X;X;X;X;X;X;X;X;X;X;X;X"
};
